<?xml version="1.0" encoding="utf-8"?>
<svg width="100%" height="100%" viewBox="-1.875 -1.75 119.25 173.5" version="1.1" xmlns="http://www.w3.org/2000/svg" style="fill-rule:evenodd;clip-rule:evenodd;"><defs><clipPath id="biped-structure-visible-1" clipPathUnits="userSpaceOnUse"><path clip-rule="evenodd" transform="matrix(1 0 0 1 0 0)" d="M-100000 -100000H100000V100000H-100000Z M65.851 9.755l.472-.715-.573-.996-.856 .052-.789 .456c-1.331-2.364-2.191-4.121-4.293-4.811L58.664 0H54.705L53.682 3.831c-2.023 .753-3.073 2.51-4.353 4.831l-.981-.566-.855-.052-.575 .996 .473 .715 1.117 .644c-.848 2.116-1.337 4.584-1.337 7.222 0 7.827 4.288 11.107 9.576 11.107 5.29 0 9.576-3.28 9.576-11.107 0-2.689-.505-5.2-1.382-7.341l.91-.525z Z"/></clipPath></defs>
  <g id="paperdoll-art-structure">
    <path id="path56107" d="M94.461 36.98V27.787l-1.532-.383-.382-3.83-3.065-1.149H87.566l-.766 .383-.766-.383H84.119l-.383 .767H82.204v-.767h-1.15l-.766-1.15H74.925l-.765 1.15H71.863v29.82L69.564 68.448l-.018 13.347H87.95l-.384-2.298 .384-.765 .766-.383v-.383l-.766-.384v-.766l-.384-.382V72.603l-.382-.765-8.044-1.917-.766-.765h-.766V67.623h.766l.766-.765V64.559l.766-.766v-1.15l-.766-.382V59.963l1.148-.766 1.15-3.447h1.148l-.766-.766h-.382v-.766h.382v-.766h-.382v-.767h.382l.766-.766H81.438V49.62h1.148l.384-1.149h.766l2.682-1.916h.766l.766 1.15h2.68l.384-1.15h1.149l.384-3.064 .382-.382V40.045l-.382-.384V37.746l1.914-.766z M33.964 85.023l-1.091 .886-.491 1.044-.745 2.543-.446 2.623-.083 2.328 .108 1.203 .645 1.738-.191 1.124-.663 .215-.191 1.125 .599 .159-.127 .749-.663 .215 .535 .534-.128 .75-.598-.16-.192 1.125 .535 .534-.255 1.498-.898-.239-.255 1.499 .708 1.362-.573 3.372 .472 .909s-1.529 .28-1.734 .431c-.206 .151-.51 2.531-.306 2.997 .204 .467 1.225 1.449 1.225 1.449l-.396 2.242-1.218 1.633-.936 3.668 .409 1.284-2.149 1.898-4.649 15.704 .307 4.598 2.566 4.56-1.083 6.37-.764 4.496-10.602 4.491 .92 2.681H35.02v-1.148l-.92-1.916-2.606-1.639 1.687-8.319h.306v-3.448l3.012-.766 3.045-6.512 .684-15.8-.919-2.203-.118-.85 .997-4.11 .5-2.113 .515-2.623s.771-.263 1.327-.431c.555-.167 .976-2.513 .51-2.997-.467-.483-1.072-1.068-1.072-1.068l.726-.589-.492-2.623 2.136-3.348 2.478-8.244-.157-2.247-.709-1.363 .492-1.044 2.289-13.464H34.512l-.548 3.227z" style="fill:rgb(199,199,199);fill-rule:nonzero;"/>
    <path id="path56111" d="M95.445 27.882c.537-.045 1.058 .007 1.549 .133l-.056-.647 .698-.83 .04-3.91 .698-.829 8.839-.773 4.016 1.956 .172 1.968 .862 1.077 .101 1.145-.663 1.212 .134 1.526 1.559 .248-.477 7.732-.382 .034 .134 1.526 .382-.034-.081 3.468 .267 3.052 .83 .696 .1 1.146-.663 1.211 .501 5.724-.697 .831 .066 .762 1.146-.101 .448 .73 .099 1.145-.313 .797-1.145 .1 .099 1.145 .831 .697 .201 2.289 1.626 1.011-1.226 3.568-.697 .829 .101 1.145-.764 .066 .067 .763 .764-.066 .801 9.158-.945 2.39 .066 .763 .797 .315 .101 1.146-.731 .448 .135 1.525-.019 8.107-1.642 3.218-7.87 .864-.796-.314 2.423-3.293-2.881-5.479 .004-2.545 .979-2.007-1.346-2.189-.969-11.066 .664-1.212-.068-.763-1.625-1.011-.568-6.487 .697-.831-.1-1.144-1.145 .1-.448-.729-.101-1.145 .314-.797 1.146-.1-.068-.763-.829-.696-.968-11.067 .247-1.559-.233-2.671-.481-1.111-.134-1.526-1.212-.664-.056-.648c-.464 .21-.967 .353-1.503 .4-.762 .066-1.496-.059-2.155-.333V28.213c.421-.175 .876-.288 1.353-.331 M23.847 27.882c-.536-.045-1.057 .007-1.549 .133l.056-.647-.697-.83-.042-3.91-.696-.829-8.839-.773-4.017 1.956-.172 1.968-.862 1.077-.101 1.145 .664 1.212-.135 1.526-1.559 .248 .478 7.732 .381 .034-.133 1.526-.383-.034 .081 3.468-.266 3.052-.83 .696-.1 1.146 .663 1.211-.501 5.724 .697 .831-.067 .762-1.145-.101-.448 .73-.101 1.145 .315 .797 1.145 .1-.099 1.145-.831 .697-.201 2.289-1.626 1.011 1.225 3.568 .698 .829-.102 1.145 .764 .066-.067 .763-.763-.066-.801 9.158 .945 2.39-.067 .763-.797 .315-.101 1.146 .731 .448-.134 1.525 .019 8.107 1.64 3.218 7.872 .864 .796-.314-2.424-3.293 2.882-5.479-.004-2.545-.979-2.007 1.346-2.189 .968-11.066-.664-1.212 .067-.763 1.626-1.011 .568-6.487-.696-.831 .1-1.144 1.145 .1 .448-.729 .101-1.145-.315-.797-1.146-.1 .068-.763 .83-.696 .967-11.067-.247-1.559 .234-2.671 .481-1.111 .134-1.526 1.211-.664 .056-.648c.465 .21 .967 .353 1.504 .4 .762 .066 1.495-.059 2.155-.333V28.213c-.421-.175-.876-.288-1.354-.331" style="fill:rgb(199,199,199);fill-rule:nonzero;"/>

    <path id="path56119" d="M85.168 85.023l1.091 .886 .491 1.044 .746 2.543 .445 2.623 .083 2.328-.108 1.203-.645 1.738 .191 1.124 .664 .215 .19 1.125-.599 .159 .128 .749 .663 .215-.536 .534 .128 .75 .598-.16 .193 1.125-.536 .534 .255 1.498 .898-.239 .255 1.499-.707 1.362 .572 3.372-.472 .909s1.529 .28 1.734 .431c.206 .151 .51 2.531 .306 2.997-.204 .467-1.226 1.449-1.226 1.449l.396 2.242 1.218 1.633 .937 3.668-.408 1.284 2.148 1.898 4.649 15.704-.306 4.598-2.567 4.56 1.083 6.37 .764 4.496 10.602 4.491-.92 2.681H84.113v-1.148l.919-1.916 2.607-1.639-1.687-8.319h-.307v-3.448l-3.012-.766-3.045-6.512-.684-15.8 .919-2.203 .118-.85-.997-4.11-.499-2.113-.517-2.623s-.77-.263-1.326-.431c-.555-.167-.975-2.513-.51-2.997 .467-.483 1.072-1.068 1.072-1.068l-.726-.589 .492-2.623-2.136-3.348-2.477-8.244 .157-2.247 .708-1.363-.492-1.044-2.289-13.464H84.62l.548 3.227z M48.354 52.357V22.537H46.056l-.766-1.15H39.927l-.766 1.15H38.013v.767H36.48l-.383-.767H34.182l-.767 .384-.766-.384H30.735l-3.065 1.15-.383 3.83-1.532 .383v9.193l1.915 .766v1.915l-.383 .383V43.22l.383 .383 .383 3.064h1.15l.382 1.151h2.682l.766-1.151h.766l2.681 1.917h.766l.383 1.149h1.15v2.298h-1.15l.766 .766h.384v.767h-.384v.766h.384v.766h-.384l-.766 .766h1.15l1.148 3.447 1.15 .766v2.298l-.766 .383v1.148l.766 .766v2.3l.766 .766h.766v1.532h-.766l-.766 .766-8.044 1.916-.384 .765v3.831l-.382 .383v.766l-.765 .383v.383l.765 .383 .382 .766-.382 2.298H50.653V68.56L48.354 52.357z M69.09 12.261l.472-.715-.573-.996-.856 .052-.789 .456c-1.33-2.364-2.191-4.121-4.293-4.811L61.903 2.506H57.944L56.921 6.337c-2.023 .753-3.073 2.51-4.353 4.831l-.981-.566-.855-.052-.575 .996 .473 .715 1.117 .644c-.848 2.116-1.337 4.584-1.337 7.221 0 7.828 4.288 11.107 9.576 11.107 5.29 0 9.576-3.279 9.576-11.107 0-2.688-.505-5.199-1.382-7.34l.91-.525z" style="fill:rgb(199,199,199);fill-rule:nonzero;"/>



    <path id="path56135" d="M72.556 52.245L70.257 68.448l-.016 13.348v.766H68.725v.766h1.132v1.149H68.725v.766h.766v1.149h-.766v.766h.766v1.149L66.81 92.904H54.552l-2.681-4.597V87.158h.766v-.766h-.766V85.243h.766v-.766H51.489V83.328h1.148v-.766H51.105V68.448L48.806 52.245V18.913l1.917-1.851H70.641l1.915 1.851V52.245z" style="fill:rgb(199,199,199);fill-rule:nonzero;"/>
    <g clip-path="url(#biped-structure-visible-1)"><path id="paperdoll-art-structure-CT-isCT" class="structure unitLocation" data-loc="CT" d="M68.926 49.74L66.627 65.943 66.61 79.291v.766H65.095v.766h1.132v1.149H65.095v.766h.766v1.15h-.766v.766h.766v1.148L63.18 90.399H50.922l-2.681-4.597V84.654h.766v-.766h-.766v-1.15h.766v-.766H47.859V80.823h1.148v-.766H47.475V65.943L45.176 49.74V16.408l1.917-1.851H67.011l1.915 1.851V49.74z" style="fill:white;fill-rule:nonzero;stroke:none;stroke-opacity:1;stroke-width:1.45px"/></g><path d="M68.926 49.74L66.627 65.943 66.61 79.291v.766H65.095v.766h1.132v1.149H65.095v.766h.766v1.15h-.766v.766h.766v1.148L63.18 90.399H50.922l-2.681-4.597V84.654h.766v-.766h-.766v-1.15h.766v-.766H47.859V80.823h1.148v-.766H47.475V65.943L45.176 49.74V16.408l1.917-1.851H67.011l1.915 1.851V49.74z" style="fill:none;fill-rule:nonzero;stroke:black;stroke-opacity:1;stroke-width:1.45px"/>

    <path id="paperdoll-art-structure-RT-isRT" class="structure unitLocation" data-loc="RT" d="M91.722 34.475V25.281l-1.532-.382-.382-3.83-3.065-1.149H84.827l-.766 .383-.766-.383H81.38l-.383 .767H79.465V19.92h-1.15l-.766-1.15H72.187l-.766 1.15H69.124V49.74L66.825 65.943l-.018 13.348H85.211l-.384-2.299 .384-.765 .766-.383v-.383l-.766-.384v-.766l-.384-.382V70.098l-.382-.765-8.044-1.916-.766-.767h-.766V65.118h.766l.766-.765V62.054l.766-.766v-1.15l-.766-.382V57.458l1.148-.766 1.15-3.447h1.148l-.766-.766h-.382v-.766h.382v-.766h-.382V50.18h.382l.766-.766H78.699V47.115h1.148l.385-1.149h.765l2.682-1.916h.766l.766 1.15h2.68l.384-1.15h1.149l.384-3.064 .382-.382V37.54l-.382-.384V35.241l1.914-.766z" style="fill:white;fill-rule:nonzero;stroke:black;stroke-opacity:1;stroke-width:1.45px"/>

    <path id="paperdoll-art-structure-RA-isRA" class="structure unitLocation" data-loc="RA" d="M92.517 25.377c.537-.045 1.058 .007 1.549 .133l-.056-.647 .698-.83 .041-3.91 .697-.829 8.839-.773 4.016 1.956 .172 1.968 .862 1.077 .101 1.145-.663 1.212 .134 1.526 1.559 .248-.477 7.732-.382 .034 .134 1.525 .382-.033-.081 3.468 .267 3.052 .83 .696 .1 1.146-.663 1.211 .501 5.724-.697 .831 .066 .762 1.146-.101 .448 .73 .099 1.145-.313 .797-1.145 .1 .099 1.145 .831 .697 .201 2.289 1.626 1.011-1.226 3.568-.697 .829 .101 1.145-.763 .066 .066 .763 .764-.066 .801 9.158-.945 2.39 .066 .763 .797 .315 .102 1.145-.731 .449 .134 1.525-.019 8.107-1.641 3.218-7.871 .864-.796-.314 2.423-3.294-2.881-5.478 .004-2.545 .979-2.007-1.346-2.189L99.79 68.96l.664-1.212-.067-.763-1.626-1.011-.568-6.488 .697-.83-.1-1.145-1.145 .101-.448-.729-.101-1.145 .315-.797 1.145-.1-.068-.763-.829-.696-.968-11.067 .247-1.559-.233-2.672-.481-1.11-.134-1.526-1.212-.664-.056-.648c-.464 .21-.967 .353-1.503 .4-.553 .048-1.091-.005-1.597-.142V25.518c.256-.069 .522-.116 .795-.141" style="fill:white;fill-rule:nonzero;"/>
    <path id="path56561" d="M92.517 25.377c.537-.045 1.058 .007 1.549 .133l-.056-.647 .698-.83 .041-3.91 .697-.829 8.839-.773 4.016 1.956 .172 1.968 .862 1.077 .101 1.145-.663 1.212 .134 1.526 1.559 .248-.477 7.732-.382 .034 .134 1.525 .382-.033-.081 3.468 .267 3.052 .83 .696 .1 1.146-.663 1.211 .501 5.724-.697 .831 .066 .762 1.146-.101 .448 .73 .099 1.145-.313 .797-1.145 .1 .099 1.145 .831 .697 .201 2.289 1.626 1.011-1.226 3.568-.697 .829 .101 1.145-.763 .066 .066 .763 .764-.066 .801 9.158-.945 2.39 .066 .763 .797 .315 .102 1.145-.731 .449 .134 1.525-.019 8.107-1.641 3.218-7.871 .864-.796-.314 2.423-3.294-2.881-5.478 .004-2.545 .979-2.007-1.346-2.189L99.79 68.96l.664-1.212-.067-.763-1.626-1.011-.568-6.488 .697-.83-.1-1.145-1.145 .101-.448-.729-.101-1.145 .315-.797 1.145-.1-.068-.763-.829-.696-.968-11.067 .247-1.559-.233-2.672-.481-1.11-.134-1.526-1.212-.664-.056-.648c-.464 .21-.967 .353-1.503 .4-.762 .066-1.496-.059-2.155-.333V25.708c.421-.175 .876-.288 1.353-.331z" style="fill:none;fill-rule:nonzero;stroke:black;stroke-width:1.45px;"/>
    <path id="paperdoll-art-structure-LA-isLA" class="structure unitLocation" data-loc="LA" d="M20.92 25.377c-.536-.045-1.057 .007-1.548 .133l.055-.647-.697-.83-.041-3.91-.697-.829-8.839-.773-4.017 1.956-.171 1.968-.863 1.077-.101 1.145 .664 1.212-.135 1.526-1.559 .248 .478 7.732 .381 .034-.133 1.525-.383-.033 .082 3.468-.267 3.052-.83 .696-.1 1.146 .663 1.211-.501 5.724 .697 .831-.067 .762L1.846 53.7l-.448 .73-.1 1.145 .314 .797 1.145 .1-.099 1.145-.831 .697-.201 2.289L0 61.614l1.225 3.568 .698 .829-.101 1.145 .764 .066-.068 .763-.763-.066-.801 9.158 .945 2.39-.067 .763-.797 .315-.1 1.145 .731 .449-.135 1.525 .019 8.107 1.641 3.218 7.871 .864 .796-.314-2.424-3.294 2.882-5.478-.004-2.545-.979-2.007 1.346-2.189 .968-11.066-.664-1.212 .068-.763 1.625-1.011 .568-6.488-.696-.83 .1-1.145 1.145 .101 .448-.729 .101-1.145-.314-.797-1.147-.1 .068-.763 .83-.696 .967-11.067-.247-1.559 .234-2.672 .481-1.11 .134-1.526 1.211-.664 .056-.648c.465 .21 .967 .353 1.504 .4 .762 .066 1.495-.059 2.155-.333V25.708c-.421-.175-.876-.288-1.354-.331" style="fill:white;fill-rule:nonzero;"/>
    <path id="path56569" d="M20.92 25.377c-.536-.045-1.057 .007-1.548 .133l.055-.647-.697-.83-.041-3.91-.697-.829-8.839-.773-4.017 1.956-.171 1.968-.863 1.077-.101 1.145 .664 1.212-.135 1.526-1.559 .248 .478 7.732 .381 .034-.133 1.525-.383-.033 .082 3.468-.267 3.052-.83 .696-.1 1.146 .663 1.211-.501 5.724 .697 .831-.067 .762L1.846 53.7l-.448 .73-.1 1.145 .314 .797 1.145 .1-.099 1.145-.831 .697-.201 2.289L0 61.614l1.225 3.568 .698 .829-.101 1.145 .764 .066-.068 .763-.763-.066-.801 9.158 .945 2.39-.067 .763-.797 .315-.1 1.145 .731 .449-.135 1.525 .019 8.107 1.641 3.218 7.871 .864 .796-.314-2.424-3.294 2.882-5.478-.004-2.545-.979-2.007 1.346-2.189 .968-11.066-.664-1.212 .068-.763 1.625-1.011 .568-6.488-.696-.83 .1-1.145 1.145 .101 .448-.729 .101-1.145-.314-.797-1.147-.1 .068-.763 .83-.696 .967-11.067-.247-1.559 .234-2.672 .481-1.11 .134-1.526 1.211-.664 .056-.648c.465 .21 .967 .353 1.504 .4 .762 .066 1.495-.059 2.155-.333V25.708c-.421-.175-.876-.288-1.354-.331z" style="fill:none;fill-rule:nonzero;stroke:black;stroke-width:1.45px;"/>
    <path id="paperdoll-art-structure-HD-isHD" class="structure unitLocation" data-loc="HD" d="M65.851 9.755l.472-.715-.573-.996-.856 .052-.789 .456c-1.331-2.364-2.191-4.121-4.293-4.811L58.664 0H54.705L53.682 3.831c-2.023 .753-3.073 2.51-4.353 4.831l-.981-.566-.855-.052-.575 .996 .473 .715 1.117 .644c-.848 2.116-1.337 4.584-1.337 7.222 0 7.827 4.288 11.107 9.576 11.107 5.29 0 9.576-3.28 9.576-11.107 0-2.689-.505-5.2-1.382-7.341l.91-.525z" style="fill:white;fill-rule:nonzero;stroke:black;stroke-opacity:1;stroke-width:1.45px"/>

    <path id="paperdoll-art-structure-RL-isRL" class="structure unitLocation" data-loc="RL" d="M82.24 82.518l1.091 .886 .491 1.044 .746 2.543 .445 2.623 .083 2.328-.108 1.203-.645 1.738 .191 1.124 .663 .215 .191 1.125-.599 .159 .127 .749 .664 .215-.536 .534 .128 .75 .598-.16 .192 1.125-.535 .534 .255 1.498 .898-.239 .255 1.499-.708 1.362 .573 3.372-.472 .909s1.529 .28 1.734 .431c.206 .151 .51 2.531 .306 2.997-.204 .467-1.226 1.449-1.226 1.449l.397 2.242 1.218 1.633 .936 3.668-.408 1.284 2.148 1.898 4.649 15.704-.306 4.598-2.567 4.56 1.083 6.37 .764 4.496 10.602 4.491-.92 2.681H81.185v-1.148l.919-1.916 2.607-1.64-1.688-8.318h-.306v-3.448l-3.012-.767-3.045-6.511-.684-15.8 .919-2.204 .118-.849-.997-4.11-.499-2.113L75 116.709s-.77-.263-1.326-.431c-.555-.167-.975-2.513-.51-2.997 .467-.483 1.072-1.068 1.072-1.068l-.726-.589 .492-2.623-2.136-3.349-2.477-8.243 .156-2.247 .709-1.363-.492-1.044-2.289-13.464H81.692l.548 3.227z" style="fill:white;fill-rule:nonzero;stroke:black;stroke-opacity:1;stroke-width:1.45px"/>

    <path id="paperdoll-art-structure-LL-isLL" class="structure unitLocation" data-loc="LL" d="M31.036 82.518l-1.091 .886-.491 1.044-.745 2.543-.446 2.623-.083 2.328 .108 1.203 .645 1.738-.191 1.124-.664 .215-.19 1.125 .599 .159-.128 .749-.662 .215 .535 .534-.128 .75-.598-.16-.193 1.125 .536 .534-.255 1.498-.898-.239-.255 1.499 .707 1.362-.572 3.372 .472 .909s-1.529 .28-1.734 .431c-.206 .151-.51 2.531-.306 2.997 .204 .467 1.225 1.449 1.225 1.449l-.396 2.242-1.218 1.633-.936 3.668 .409 1.284-2.149 1.898-4.649 15.704 .307 4.598 2.566 4.56-1.083 6.37-.764 4.496-10.602 4.491 .92 2.681H32.092v-1.148l-.92-1.916-2.606-1.64 1.686-8.318h.307v-3.448l3.012-.767 3.045-6.511 .684-15.8-.919-2.204-.118-.849 .997-4.11 .5-2.113 .516-2.623s.77-.263 1.326-.431c.555-.167 .976-2.513 .51-2.997-.467-.483-1.072-1.068-1.072-1.068l.726-.589-.492-2.623 2.136-3.349 2.478-8.243-.158-2.247-.708-1.363 .492-1.044 2.289-13.464H31.584l-.548 3.227z" style="fill:white;fill-rule:nonzero;stroke:black;stroke-opacity:1;stroke-width:1.45px"/>

    <path id="paperdoll-art-structure-LT-isLT" class="structure unitLocation" data-loc="LT" d="M44.873 49.74V19.92H42.575l-.766-1.15H36.446l-.766 1.15H34.532v.766H32.999l-.382-.766H30.701l-.767 .383-.766-.383H27.254l-3.065 1.149-.383 3.83-1.531 .383v9.193l1.914 .766v1.916l-.383 .383v3.063l.383 .383 .383 3.064h1.15l.382 1.15h2.682l.766-1.15h.766l2.681 1.916h.766l.383 1.149h1.15v2.299h-1.15l.766 .765h.384v.767h-.384v.766h.384v.766h-.384l-.766 .766h1.15l1.148 3.448 1.15 .766v2.298l-.766 .383v1.148l.766 .766v2.299l.766 .766h.766v1.533h-.766l-.766 .766-8.044 1.916-.384 .765v3.83l-.382 .384v.766l-.765 .383v.383l.765 .383 .382 .765-.382 2.299H47.172V65.943L44.873 49.74z" style="fill:white;fill-rule:nonzero;stroke:black;stroke-opacity:1;stroke-width:1.45px"/>

    <rect x="49.8" y="9.12" width="14.002" height="13.146" style="fill: none; stroke: rgb(255, 0, 0);" data-canon="structure" data-fill="structure" data-location="HD"/>
    <rect data-canon="structure" data-location="CT" x="47.172" y="29.727" width="19.635" height="57.971" style="fill: none; stroke-dasharray: 2; stroke: rgb(255, 0, 0);"/>
    <rect data-canon="structure" data-location="LT" x="25.628" y="22.235" width="20.258" height="55.565" style="fill: none; stroke-dasharray: 2; stroke: rgb(255, 0, 0);"/>
    <rect data-canon="structure" data-location="RT" x="68.316" y="22.235" width="19.935" height="55.565" style="fill: none; stroke-dasharray: 2; stroke: rgb(255, 0, 0);"/>
    <rect data-canon="structure" data-location="LA" x="1.678" y="21.026" width="15.326" height="72.034" style="fill: none; stroke-dasharray: 2; stroke: rgb(255, 0, 0);"/>
    <rect data-canon="structure" data-location="RA" x="96.417" y="21.026" width="15.624" height="72.034" style="fill: none; stroke-dasharray: 2; stroke: rgb(255, 0, 0);"/>
    <rect data-canon="structure" data-location="LL" x="14.064" y="81.369" width="31.739" height="84.605" style="fill: none; stroke-dasharray: 2; stroke: rgb(255, 0, 0);"/>
    <rect data-canon="structure" data-location="RL" x="68.386" y="81.369" width="30.391" height="84.605" style="fill: none; stroke-dasharray: 2; stroke: rgb(255, 0, 0);"/>
    <path d="M 47.345 29.597 L 66.98 29.597 L 66.98 55.865 L 65.737 59.828 L 64.051 87.124 L 49.83 87.124 L 48.41 59.828 L 47.345 55.865 L 47.345 29.597 Z" style="fill: none; stroke-dasharray: 2; stroke-width: 1; stroke: rgb(0, 0, 255);" data-fill="structure" data-location="CT"/>
    <path d="M 70.984 23.678 L 88.877 23.678 L 88.175 42.532 L 80.993 43.17 L 77.387 46.446 C 77.387 46.446 75.992 57.898 72.985 67.865 L 83.403 71.218 L 83.551 76.668 L 68.231 76.668 L 68.586 63.959 L 70.515 50.198 L 70.984 23.678 Z" style="fill: none; stroke-dasharray: 2; stroke-width: 1; stroke: rgb(0, 0, 255);" data-fill="structure" data-location="RT"/>
    <path d="M 27.935 76.668 L 45.828 76.668 L 45.126 57.814 L 37.944 57.176 L 34.338 53.9 C 34.338 53.9 32.943 42.448 29.936 32.481 L 40.354 29.128 L 40.502 23.678 L 25.182 23.678 L 25.537 36.387 L 27.466 50.148 L 27.935 76.668 Z" style="fill: none; stroke-dasharray: 2; stroke-width: 1; stroke: rgb(0, 0, 255); transform-box: fill-box; transform-origin: 50% 50%;" transform="matrix(-1, 0, 0, -1, 0.000004, 0.000003)" data-fill="structure" data-location="LT"/>
  </g>
  <path d="M 4.419 20.435 L 15.524 20.342 L 12.305 86.808 L 10.331 93.536 L 5.754 93.928 L 3.724 91.42 L 3.052 55.56 L 4.419 20.435 Z" style="stroke: rgb(0, 0, 255); fill: none; stroke-dasharray: 2; transform-box: fill-box; transform-origin: 50% 50%;" data-fill="structure" data-location="LA" transform="matrix(0.998411, 0.056343, -0.056343, 0.998411, 0, 0)"/>
  <path d="M 99.249 93.835 L 110.354 93.928 L 107.135 27.462 L 105.161 20.734 L 100.584 20.342 L 98.554 22.85 L 97.882 58.71 L 99.249 93.835 Z" style="stroke: rgb(0, 0, 255); fill: none; stroke-dasharray: 2; stroke-width: 1; transform-origin: 104.118px 57.135px;" transform="matrix(-0.998411, 0.056343, -0.056343, -0.998411, 0.000007, 0.000004)" data-fill="structure" data-location="RA"/>
  <path d="M 42.089 87.98 L 51.351 88.015 L 54.567 92.306 L 52.852 102.138 L 52.531 132.389 L 54.037 134.555 L 55.087 150.705 L 51.476 156.483 L 51.272 172.106 L 42.184 172.106 L 41.965 155.227 L 39.656 153.305 C 39.656 153.305 37.756 150.789 40.412 137.098 C 40.976 134.191 42.806 130.769 42.806 130.769 L 42.089 87.98 Z" style="fill: none; stroke-dasharray: 2; stroke: rgb(0, 0, 255); transform-box: fill-box; transform-origin: 50% 50%;" transform="matrix(0.979883, -0.199572, 0.199572, 0.979883, 35.445139, -6.079223)" data-fill="structure" data-location="RL"/>
  <path d="M 26.202 164.582 L 35.464 164.547 L 38.68 160.256 L 36.965 150.424 L 36.644 120.173 L 38.15 118.007 L 39.2 101.857 L 35.589 96.079 L 35.385 80.456 L 26.297 80.456 L 26.078 97.335 L 23.769 99.257 C 23.769 99.257 21.869 101.773 24.525 115.464 C 25.089 118.371 26.919 121.793 26.919 121.793 L 26.202 164.582 Z" style="fill: none; stroke-dasharray: 2; stroke: rgb(0, 0, 255); stroke-width: 1; transform-origin: 31.155px 122.519px;" data-fill="structure" data-location="LL" transform="matrix(-0.979883, -0.199572, 0.199572, -0.979883, -0.000001, 0.000011)"/>

  <!-- Editable ordered pip rails; removed by the paperdoll generator. -->
    <g data-rail="structure" data-location="HD" fill="none" stroke="#00b83f" stroke-width="0.8" stroke-dasharray="2">
      <path d="M 51 17 L 63 17" data-rail-index="1" data-rail-capacity="3"/>
    </g>
    <g data-rail="structure" data-location="CT" fill="none" stroke="#00b83f" stroke-width="0.8" stroke-dasharray="2">
      <path d="M 56.8 32 L 56.8 86" data-rail-index="1" data-rail-capacity="8"/>
      <path d="M 52.3 32 L 52.3 86" data-rail-index="2" data-rail-capacity="8"/>
      <path d="M 61.3 32 L 61.3 86" data-rail-index="3" data-rail-capacity="8"/>
      <path d="M 48.5 32 L 51 86" data-rail-index="4" data-rail-capacity="8"/>
    </g>
    <g data-rail="structure" data-location="LT" fill="none" stroke="#00b83f" stroke-width="0.8" stroke-dasharray="2">
      <path d="M 38 24 L 39 45 L 42 65 L 38 73 L 31 73" data-rail-index="1" data-rail-capacity="10"/>
      <path d="M 34 24 L 34 40 L 37 44 L 40 57" data-rail-index="2" data-rail-capacity="7"/>
      <path d="M 29 24 L 30 41" data-rail-index="3" data-rail-capacity="4"/>
    </g>
    <g data-rail="structure" data-location="RT" fill="none" stroke="#00b83f" stroke-width="0.8" stroke-dasharray="2">
      <path d="M 76 24 L 75 45 L 72 65 L 76 73 L 83 73" data-rail-index="1" data-rail-capacity="10"/>
      <path d="M 80 24 L 80 40 L 77 44 L 74 57" data-rail-index="2" data-rail-capacity="7"/>
      <path d="M 85 24 L 84 41" data-rail-index="3" data-rail-capacity="4"/>
    </g>
    <g data-rail="structure" data-location="LA" fill="none" stroke="#00b83f" stroke-width="0.8" stroke-dasharray="2">
      <path d="M 9 23 L 7 53 L 4 88" data-rail-index="1" data-rail-capacity="9"/>
      <path d="M 14 23 L 12 53 L 9 88" data-rail-index="2" data-rail-capacity="9"/>
    </g>
    <g data-rail="structure" data-location="RA" fill="none" stroke="#00b83f" stroke-width="0.8" stroke-dasharray="2">
      <path d="M 105 23 L 107 53 L 110 88" data-rail-index="1" data-rail-capacity="9"/>
      <path d="M 100 23 L 102 53 L 105 88" data-rail-index="2" data-rail-capacity="9"/>
    </g>
    <g data-rail="structure" data-location="LL" fill="none" stroke="#00b83f" stroke-width="0.8" stroke-dasharray="2">
      <path d="M 35 82 L 31 108 L 31 123 L 25 143 L 25 163" data-rail-index="1" data-rail-capacity="11"/>
      <path d="M 40 83 L 36 108 L 35 123 L 30 143 L 26 163" data-rail-index="2" data-rail-capacity="11"/>
    </g>
    <g data-rail="structure" data-location="RL" fill="none" stroke="#00b83f" stroke-width="0.8" stroke-dasharray="2">
      <path d="M 79 82 L 83 108 L 83 123 L 89 143 L 89 163" data-rail-index="1" data-rail-capacity="11"/>
      <path d="M 74 83 L 78 108 L 79 123 L 84 143 L 88 163" data-rail-index="2" data-rail-capacity="11"/>
    </g>
</svg>

