<svg xmlns="http://www.w3.org/2000/svg" viewBox="28.625 24.625 293.375 462.375">
  <defs><clipPath id="dropship-aerodyne-contour" clipPathUnits="userSpaceOnUse"><path clip-rule="evenodd" d="M544.2098 406.1016 L513.4388 458.4636 L513.4388 575.6866 C513.4388 584.3286 508.8688 591.3346 503.2268 591.3346 L502.3768 591.3346 C501.0798 591.3346 495.8898 655.8886 489.6118 673.1016 C486.7018 681.0906 457.6058 684.4436 426.5008 684.4546 C423.9358 684.4556 411.0408 684.4546 411.0408 684.4546 C379.9358 684.4436 350.8358 681.0906 347.9238 673.1016 C341.6478 655.8886 336.4568 591.3346 335.1588 591.3346 L334.3088 591.3346 C328.6708 591.3346 324.0988 584.3286 324.0988 575.6866 L324.0988 458.4636 L293.3308 406.1016 L276.7638 301.3836 L326.2148 305.9406 C331.4198 302.4936 339.1398 300.3066 347.7638 300.3066 C357.6558 300.3066 366.3478 303.1866 371.4318 307.5446 L371.4318 277.7126 L380.9008 277.7126 L390.0578 298.6976 L390.0578 313.0516 L447.4838 313.0516 L447.4838 298.6976 L456.6388 277.7126 L466.1078 277.7126 L466.1078 307.5446 C471.1918 303.1866 479.8818 300.3066 489.7728 300.3066 C498.3968 300.3066 506.1178 302.4936 511.3278 305.9406 L560.7718 301.3836 Z Z M475.4887 493 C475.4887 486.598 471.2047 481.409 465.9207 481.409 L370.8707 481.409 C365.5857 481.409 361.3017 486.598 361.3017 493 L361.3017 527.317 C361.3017 533.718 365.5857 538.908 370.8707 538.908 L465.9207 538.908 C471.2047 538.908 475.4887 533.718 475.4887 527.317 Z Z"/></clipPath></defs><g transform="matrix(0.963,0,0,0.963,24.464,25.178)">
        <g transform="matrix(1,0,0,-1,-261.73197,727.06296)">
          <g transform="translate(548.3167,403.4123)">
            <path style="fill:#ccced0;fill-opacity:1;fill-rule:nonzero;stroke:none" d="M0 0L-30.77 52.362V169.585c0 8.643-4.571 15.648-10.213 15.648h-.85c-1.297 0-6.487 64.553-12.765 81.767-2.91 7.99-32.006 11.343-63.111 11.353-2.564 .001-15.46 0-15.46 0-31.105-.01-60.205-3.363-63.117-11.353-6.276-17.214-11.467-81.767-12.765-81.767h-.85c-5.637 0-10.21-7.005-10.21-15.648V52.362L-250.879 0-267.446-104.718l49.452 4.557c5.204-3.447 12.924-5.634 21.548-5.634 9.892 0 18.584 2.88 23.668 7.238v-29.832h9.469l9.157 20.985V-93.05h57.426v-14.354l9.155-20.985h9.469v29.832c5.084-4.358 13.774-7.238 23.665-7.238 8.624 0 16.346 2.187 21.555 5.634l49.445-4.557z"/>
          </g>
          <g transform="translate(544.2098,406.1016)">
            <path style="fill:#ffffff;fill-opacity:1;fill-rule:nonzero;stroke:none" d="M0 0L-30.771 52.362V169.585c0 8.642-4.57 15.648-10.212 15.648h-.85c-1.297 0-6.487 64.554-12.765 81.767-2.91 7.989-32.006 11.342-63.111 11.353-2.565 .001-15.46 0-15.46 0-31.105-.011-60.205-3.364-63.117-11.353-6.276-17.213-11.467-81.767-12.765-81.767h-.85c-5.638 0-10.21-7.006-10.21-15.648V52.362L-250.879 0-267.446-104.718l49.451 4.557c5.205-3.447 12.925-5.634 21.549-5.634 9.892 0 18.584 2.88 23.668 7.238v-29.832h9.469l9.157 20.985V-93.05h57.426v-14.354l9.155-20.985h9.469v29.832c5.084-4.358 13.774-7.238 23.665-7.238 8.624 0 16.345 2.187 21.555 5.634l49.444-4.557z"/>
          </g>
          <g transform="translate(554.9207,333.815)">
            <path style="fill:#ffffff;fill-opacity:1;fill-rule:nonzero;stroke:#a7a9ac;stroke-width:0.966;stroke-linecap:butt;stroke-linejoin:miter;stroke-miterlimit:4;stroke-dasharray:none;stroke-opacity:1" d="M0 0H-45.134V38.958H-6.165z"/>
          </g>

          <g transform="translate(281.8829,332.7104)">
            <path style="fill:#ffffff;fill-opacity:1;fill-rule:nonzero;stroke:#a7a9ac;stroke-width:0.966;stroke-linecap:butt;stroke-linejoin:miter;stroke-miterlimit:4;stroke-dasharray:none;stroke-opacity:1" d="M0 0H45.131V40.063H6.163z"/>
          </g>

          <g transform="translate(384.7659,589.3804)">
            <path style="fill:#a7a9ac;fill-opacity:1;fill-rule:nonzero;stroke:#a7a9ac;stroke-width:0.966;stroke-linecap:butt;stroke-linejoin:miter;stroke-miterlimit:4;stroke-dasharray:none;stroke-opacity:1" d="M0 0C2.109 16.91 16.526 29.998 34.008 29.998 51.492 29.998 65.904 16.91 68.015 0h8.634C74.498 21.656 56.228 38.569 34.008 38.569 11.787 38.569-6.482 21.656-8.634 0z"/>
          </g>

          <g transform="translate(418.7737,684.4385)">
            <path style="fill:none;stroke:#a7a9ac;stroke-width:0.966;stroke-linecap:butt;stroke-linejoin:miter;stroke-miterlimit:4;stroke-dasharray:none;stroke-opacity:1" d="M0 0C-33.854 .577-67.689-2.64-70.845-11.288c-3.123-8.577-5.982-28.907-8.224-47.149h.957l31.166 38.958H46.555L77.721-58.437h1.345c-2.242 18.242-5.1 38.572-8.228 47.149C67.688-2.64 33.852 .577 0 0z"/>
          </g>
          <g transform="translate(434.3584,580.226)">
            <path style="fill:#ffffff;fill-opacity:1;fill-rule:nonzero;stroke:none" d="M0 0C-2.689 0-4.872 2.18-4.872 4.868c0 2.69 2.183 4.871 4.872 4.871 2.688 0 4.867-2.181 4.867-4.871C4.867 2.18 2.688 0 0 0M0 14.608c-5.381 0-9.741-4.361-9.741-9.74 0-5.377 4.36-9.739 9.741-9.739 5.378 0 9.738 4.362 9.738 9.739 0 5.379-4.36 9.74-9.738 9.74"/>
          </g>
          <g transform="translate(434.3584,580.226)">
            <path style="fill:none;stroke:#a7a9ac;stroke-width:0.966;stroke-linecap:butt;stroke-linejoin:miter;stroke-miterlimit:4;stroke-dasharray:none;stroke-opacity:1" d="M0 0C-2.689 0-4.872 2.18-4.872 4.868c0 2.69 2.183 4.871 4.872 4.871 2.688 0 4.867-2.181 4.867-4.871C4.867 2.18 2.688 0 0 0zM0 14.608c-5.381 0-9.741-4.361-9.741-9.74 0-5.377 4.36-9.739 9.741-9.739 5.378 0 9.738 4.362 9.738 9.739 0 5.379-4.36 9.74-9.738 9.74z"/>
          </g>
          <g transform="translate(418.7737,439.0019)">
            <path style="fill:#ffffff;fill-opacity:1;fill-rule:nonzero;stroke:none" d="M0 0C-17.212 0-31.168 13.954-31.168 31.167-31.168 48.379-17.212 62.333 0 62.333c17.211 0 31.168-13.954 31.168-31.166C31.168 13.954 17.211 0 0 0M0 174.143c15.491 0 28.051-12.558 28.051-28.05 0-15.491-12.56-28.049-28.051-28.049s-28.051 12.558-28.051 28.049c0 15.492 12.56 28.05 28.051 28.05M37.009 18.999c1.258 3.831 1.947 7.917 1.947 12.168 0 8.77-2.899 16.864-7.788 23.375v93.11h-.042C30.315 164.141 16.687 177.261 0 177.261c-16.69 0-30.316-13.12-31.128-29.609h-.04V54.542c-4.892-6.511-7.791-14.605-7.791-23.375 0-4.251 .691-8.336 1.949-12.167V-40.175h7.789v-85.708H29.218v85.708h7.791z"/>
          </g>
          <g transform="translate(418.7737,439.0019)">
            <path style="fill:none;stroke:#a7a9ac;stroke-width:0.966;stroke-linecap:butt;stroke-linejoin:miter;stroke-miterlimit:4;stroke-dasharray:none;stroke-opacity:1" d="M0 0C-17.212 0-31.168 13.954-31.168 31.167-31.168 48.379-17.212 62.333 0 62.333c17.211 0 31.168-13.954 31.168-31.166C31.168 13.954 17.211 0 0 0zM0 174.143c15.491 0 28.051-12.558 28.051-28.05 0-15.491-12.56-28.049-28.051-28.049s-28.051 12.558-28.051 28.049c0 15.492 12.56 28.05 28.051 28.05zM37.009 18.999c1.258 3.831 1.947 7.917 1.947 12.168 0 8.77-2.899 16.864-7.788 23.375v93.11h-.042C30.315 164.141 16.687 177.261 0 177.261c-16.69 0-30.316-13.12-31.128-29.609h-.04V54.542c-4.892-6.511-7.791-14.605-7.791-23.375 0-4.251 .691-8.336 1.949-12.167V-40.175h7.789v-85.708H29.218v85.708h7.791z"/>
          </g>
          <g transform="translate(372.0506,375.0858)">
            <path style="fill:#ffffff;fill-opacity:1;fill-rule:nonzero;stroke:#a7a9ac;stroke-width:0.966;stroke-linecap:butt;stroke-linejoin:miter;stroke-miterlimit:4;stroke-dasharray:none;stroke-opacity:1" d="M0 0L9.593 23.741h7.791L7.643-.364V-97.396H0l-.146-.365v.365V-.364 0z"/>
          </g>

          <g transform="translate(465.2552,375.0858)">
            <path style="fill:#ffffff;fill-opacity:1;fill-rule:nonzero;stroke:#a7a9ac;stroke-width:0.966;stroke-linecap:butt;stroke-linejoin:miter;stroke-miterlimit:4;stroke-dasharray:none;stroke-opacity:1" d="M0 0L-9.593 23.741h-7.79L-7.643-.364V-97.396H0l.148-.365v.365V-.364 0z"/>
          </g>

          <path style="fill:#ffffff;fill-opacity:1;fill-rule:nonzero;stroke:none" d="M316.068 327.184H296.19v4.863h19.878z"/>
          <g transform="translate(316.0677,327.1843)">
            <path style="fill:none;stroke:#a7a9ac;stroke-width:0.966;stroke-linecap:butt;stroke-linejoin:miter;stroke-miterlimit:4;stroke-dasharray:none;stroke-opacity:1" d="M0 0H-19.878V4.863H0z"/>
          </g>
          <path style="fill:#ffffff;fill-opacity:1;fill-rule:nonzero;stroke:none" d="M397.685 315.261H391.06v22.085h6.625z"/>
          <g transform="translate(397.685,315.2611)">
            <path style="fill:none;stroke:#a7a9ac;stroke-width:0.966;stroke-linecap:butt;stroke-linejoin:miter;stroke-miterlimit:4;stroke-dasharray:none;stroke-opacity:1" d="M0 0H-6.625V22.085H0z"/>
          </g>
          <path style="fill:#ffffff;fill-opacity:1;fill-rule:nonzero;stroke:none" d="M405.784 315.261h-6.626v22.085h6.626z"/>
          <g transform="translate(405.7842,315.2611)">
            <path style="fill:none;stroke:#a7a9ac;stroke-width:0.966;stroke-linecap:butt;stroke-linejoin:miter;stroke-miterlimit:4;stroke-dasharray:none;stroke-opacity:1" d="M0 0H-6.626V22.085H0z"/>
          </g>
          <path style="fill:#ffffff;fill-opacity:1;fill-rule:nonzero;stroke:none" d="M413.88 315.261h-6.624v22.085h6.624z"/>
          <g transform="translate(413.8804,315.2611)">
            <path style="fill:none;stroke:#a7a9ac;stroke-width:0.966;stroke-linecap:butt;stroke-linejoin:miter;stroke-miterlimit:4;stroke-dasharray:none;stroke-opacity:1" d="M0 0H-6.624V22.085H0z"/>
          </g>
          <path style="fill:#ffffff;fill-opacity:1;fill-rule:nonzero;stroke:none" d="M421.982 315.261h-6.628v22.085h6.628z"/>
          <g transform="translate(421.9815,315.2611)">
            <path style="fill:none;stroke:#a7a9ac;stroke-width:0.966;stroke-linecap:butt;stroke-linejoin:miter;stroke-miterlimit:4;stroke-dasharray:none;stroke-opacity:1" d="M0 0H-6.628V22.085H0z"/>
          </g>
          <path style="fill:#ffffff;fill-opacity:1;fill-rule:nonzero;stroke:none" d="M430.078 315.261h-6.625v22.085h6.625z"/>
          <g transform="translate(430.0778,315.2611)">
            <path style="fill:none;stroke:#a7a9ac;stroke-width:0.966;stroke-linecap:butt;stroke-linejoin:miter;stroke-miterlimit:4;stroke-dasharray:none;stroke-opacity:1" d="M0 0H-6.625V22.085H0z"/>
          </g>
          <path style="fill:#ffffff;fill-opacity:1;fill-rule:nonzero;stroke:none" d="M438.179 315.261h-6.625v22.085h6.625z"/>
          <g transform="translate(438.1789,315.2611)">
            <path style="fill:none;stroke:#a7a9ac;stroke-width:0.966;stroke-linecap:butt;stroke-linejoin:miter;stroke-miterlimit:4;stroke-dasharray:none;stroke-opacity:1" d="M0 0H-6.625V22.085H0z"/>
          </g>
          <path style="fill:#ffffff;fill-opacity:1;fill-rule:nonzero;stroke:none" d="M446.276 315.261h-6.624v22.085h6.624z"/>
          <g transform="translate(446.2761,315.2611)">
            <path style="fill:none;stroke:#a7a9ac;stroke-width:0.966;stroke-linecap:butt;stroke-linejoin:miter;stroke-miterlimit:4;stroke-dasharray:none;stroke-opacity:1" d="M0 0H-6.624V22.085H0z"/>
          </g>
          <g transform="translate(345.9296,632.3785)">
            <path style="fill:none;stroke:#a7a9ac;stroke-width:0.966;stroke-linecap:round;stroke-linejoin:round;stroke-miterlimit:4;stroke-dasharray:none;stroke-opacity:1" d="M0 0C-3.307-22.98-5.765-50.099-6.584-50.099H-7.39c-5.358 0-9.702-6.656-9.702-14.866V-176.327l-29.227-49.742-5.307-33.536"/>
          </g>
          <g transform="translate(543.2411,372.773)">
            <path style="fill:none;stroke:#a7a9ac;stroke-width:0.966;stroke-linecap:round;stroke-linejoin:round;stroke-miterlimit:4;stroke-dasharray:none;stroke-opacity:1" d="M0 0L-5.304 33.536-34.535 83.279V194.64c0 8.21-4.343 14.867-9.701 14.867h-.806c-.821 0-3.271 27.051-6.57 50.012"/>
          </g>
          <path style="fill:#ffffff;fill-opacity:1;fill-rule:nonzero;stroke:none" d="M375.644 467.072H326.945v31.167h48.699z"/>
          <g transform="translate(375.644,467.0721)">
            <path style="fill:none;stroke:#a7a9ac;stroke-width:0.966;stroke-linecap:butt;stroke-linejoin:miter;stroke-miterlimit:4;stroke-dasharray:none;stroke-opacity:1" d="M0 0H-48.699V31.167H0z"/>
          </g>
          <path style="fill:#ffffff;fill-opacity:1;fill-rule:nonzero;stroke:none" d="M375.739 539.615H327.042V508.45h48.697z"/>
          <g transform="translate(375.7386,539.6147)">
            <path style="fill:none;stroke:#a7a9ac;stroke-width:0.966;stroke-linecap:butt;stroke-linejoin:miter;stroke-miterlimit:4;stroke-dasharray:none;stroke-opacity:1" d="M0 0H-48.697V-31.165H0z"/>
          </g>
          <path style="fill:#ffffff;fill-opacity:1;fill-rule:nonzero;stroke:none" d="M510.265 467.072H461.57v31.167h48.695z"/>
          <g transform="translate(510.2646,467.0721)">
            <path style="fill:none;stroke:#a7a9ac;stroke-width:0.966;stroke-linecap:butt;stroke-linejoin:miter;stroke-miterlimit:4;stroke-dasharray:none;stroke-opacity:1" d="M0 0H-48.695V31.167H0z"/>
          </g>
          <path style="fill:#ffffff;fill-opacity:1;fill-rule:nonzero;stroke:none" d="M510.357 539.615H461.662V508.45h48.695z"/>
          <g transform="translate(510.3574,539.6147)">
            <path style="fill:none;stroke:#a7a9ac;stroke-width:0.966;stroke-linecap:butt;stroke-linejoin:miter;stroke-miterlimit:4;stroke-dasharray:none;stroke-opacity:1" d="M0 0H-48.695V-31.165H0z"/>
          </g>
          <g transform="translate(372.2978,601.3483)">
            <path style="fill:#ffffff;fill-opacity:1;fill-rule:nonzero;stroke:#a7a9ac;stroke-width:0.966;stroke-linecap:butt;stroke-linejoin:miter;stroke-miterlimit:4;stroke-dasharray:none;stroke-opacity:1" d="M0 0L-33.041-18.84"/>
          </g>
          <g transform="translate(464.9552,600.8148)">
            <path style="fill:#ffffff;fill-opacity:1;fill-rule:nonzero;stroke:#a7a9ac;stroke-width:0.966;stroke-linecap:butt;stroke-linejoin:miter;stroke-miterlimit:4;stroke-dasharray:none;stroke-opacity:1" d="M0 0L33.325-18.307"/>
          </g>
          <g transform="translate(335.3773,428.9368)">
            <path style="fill:#ffffff;fill-opacity:1;fill-rule:nonzero;stroke:none" d="M0 0C0 .024 .003 .046 .003 .071 .042 15.737 6.568 28.412 14.61 28.412c8.041 0 9.27-12.605 9.313-28.271 0-.024 .003-.046 .003-.071 0-7.707-1.248-14.024-9.316-14.024C6.54-13.954 0-7.706 0 0M-8.374-19.478v-.002-103.349c5.204-3.365 12.821-5.493 21.327-5.493 9.89 0 18.584 2.877 23.669 7.238L37.01-19.48v.002c0 29.368-10.159 53.177-22.693 53.177S-8.374 9.89-8.374-19.478"/>
          </g>
          <g transform="translate(335.3773,428.9368)">
            <path style="fill:none;stroke:#a7a9ac;stroke-width:0.966;stroke-linecap:butt;stroke-linejoin:miter;stroke-miterlimit:4;stroke-dasharray:none;stroke-opacity:1" d="M0 0C0 .024 .003 .046 .003 .071 .042 15.737 6.568 28.412 14.61 28.412c8.041 0 9.27-12.605 9.313-28.271 0-.024 .003-.046 .003-.071 0-7.707-1.248-14.024-9.316-14.024C6.54-13.954 0-7.706 0 0zM-8.374-19.478v-.002-103.349c5.204-3.365 12.821-5.493 21.327-5.493 9.89 0 18.584 2.877 23.669 7.238L37.01-19.48v.002c0 29.368-10.159 53.177-22.693 53.177S-8.374 9.89-8.374-19.478z"/>
          </g>
          <g transform="translate(372.078,328.2657)">
            <path style="fill:none;stroke:#a7a9ac;stroke-width:0.966;stroke-linecap:butt;stroke-linejoin:miter;stroke-miterlimit:4;stroke-dasharray:none;stroke-opacity:1" d="M0 0C-5.097-4.32-13.744-7.167-23.583-7.167c-8.504 0-16.123 2.128-21.329 5.492"/>
          </g>
          <g transform="translate(372.1865,415.754)">
            <path style="fill:none;stroke:#a7a9ac;stroke-width:0.966;stroke-linecap:butt;stroke-linejoin:miter;stroke-miterlimit:4;stroke-dasharray:none;stroke-opacity:1" d="M0 0C-5.098-4.319-13.747-7.166-23.582-7.166c-8.502 0-16.124 2.128-21.329 5.493"/>
          </g>
          <g transform="translate(339.2569,302.0089)">
            <path style="fill:none;stroke:#a7a9ac;stroke-width:0.966;stroke-linecap:butt;stroke-linejoin:miter;stroke-miterlimit:4;stroke-dasharray:none;stroke-opacity:1" d="M0 0V19.88"/>
          </g>
          <g transform="translate(358.0298,302.0089)">
            <path style="fill:none;stroke:#a7a9ac;stroke-width:0.966;stroke-linecap:butt;stroke-linejoin:miter;stroke-miterlimit:4;stroke-dasharray:none;stroke-opacity:1" d="M0 0V19.878"/>
          </g>
          <g transform="translate(330.425,304.216)">
            <path style="fill:none;stroke:#a7a9ac;stroke-width:0.966;stroke-linecap:butt;stroke-linejoin:miter;stroke-miterlimit:4;stroke-dasharray:none;stroke-opacity:1" d="M0 0V20.983"/>
          </g>
          <g transform="translate(367.971,305.3225)">
            <path style="fill:none;stroke:#a7a9ac;stroke-width:0.966;stroke-linecap:butt;stroke-linejoin:miter;stroke-miterlimit:4;stroke-dasharray:none;stroke-opacity:1" d="M0 0V19.876"/>
          </g>
          <g transform="translate(487.7164,414.9829)">
            <path style="fill:#ffffff;fill-opacity:1;fill-rule:nonzero;stroke:none" d="M0 0C-8.067 0-9.314 6.317-9.314 14.024c0 .024 .002 .046 .002 .071C-9.272 29.761-8.042 42.367 0 42.367S14.57 29.69 14.608 14.026c0-.025 .002-.047 .002-.073C14.61 6.247 8.069 0 0 0M.295 47.652C-12.24 47.652-22.4 23.843-22.4-5.523v-.003l.39-101.605c5.083-4.359 13.776-7.237 23.668-7.237 8.503 0 16.123 2.127 21.33 5.494V-5.526v.003c0 29.366-10.162 53.175-22.693 53.175"/>
          </g>
          <g transform="translate(487.7164,414.9829)">
            <path style="fill:none;stroke:#a7a9ac;stroke-width:0.966;stroke-linecap:butt;stroke-linejoin:miter;stroke-miterlimit:4;stroke-dasharray:none;stroke-opacity:1" d="M0 0C-8.067 0-9.314 6.317-9.314 14.024c0 .024 .002 .046 .002 .071C-9.272 29.761-8.042 42.367 0 42.367S14.57 29.69 14.608 14.026c0-.025 .002-.047 .002-.073C14.61 6.247 8.069 0 0 0zM.295 47.652C-12.24 47.652-22.4 23.843-22.4-5.523v-.003l.39-101.605c5.083-4.359 13.776-7.237 23.668-7.237 8.503 0 16.123 2.127 21.33 5.494V-5.526v.003c0 29.366-10.162 53.175-22.693 53.175z"/>
          </g>
          <g transform="translate(465.6287,328.2657)">
            <path style="fill:none;stroke:#a7a9ac;stroke-width:0.966;stroke-linecap:butt;stroke-linejoin:miter;stroke-miterlimit:4;stroke-dasharray:none;stroke-opacity:1" d="M0 0C5.094-4.32 13.742-7.167 23.578-7.167c8.508 0 16.126 2.128 21.329 5.492"/>
          </g>
          <g transform="translate(465.5175,415.754)">
            <path style="fill:none;stroke:#a7a9ac;stroke-width:0.966;stroke-linecap:butt;stroke-linejoin:miter;stroke-miterlimit:4;stroke-dasharray:none;stroke-opacity:1" d="M0 0C5.099-4.319 13.745-7.166 23.583-7.166c8.501 0 16.125 2.128 21.331 5.493"/>
          </g>
          <g transform="translate(498.28,302.0089)">
            <path style="fill:none;stroke:#a7a9ac;stroke-width:0.966;stroke-linecap:butt;stroke-linejoin:miter;stroke-miterlimit:4;stroke-dasharray:none;stroke-opacity:1" d="M0 0V19.88"/>
          </g>
          <g transform="translate(479.5071,302.0089)">
            <path style="fill:none;stroke:#a7a9ac;stroke-width:0.966;stroke-linecap:butt;stroke-linejoin:miter;stroke-miterlimit:4;stroke-dasharray:none;stroke-opacity:1" d="M0 0V19.878"/>
          </g>
          <g transform="translate(507.1165,304.216)">
            <path style="fill:none;stroke:#a7a9ac;stroke-width:0.966;stroke-linecap:butt;stroke-linejoin:miter;stroke-miterlimit:4;stroke-dasharray:none;stroke-opacity:1" d="M0 0V20.983"/>
          </g>
          <g transform="translate(469.5678,305.3225)">
            <path style="fill:none;stroke:#a7a9ac;stroke-width:0.966;stroke-linecap:butt;stroke-linejoin:miter;stroke-miterlimit:4;stroke-dasharray:none;stroke-opacity:1" d="M0 0V19.876"/>
          </g>
          <g transform="translate(544.2098,406.1016)">
            <path style="fill:none;stroke:#000000;stroke-width:1.932;stroke-linecap:butt;stroke-linejoin:miter;stroke-miterlimit:4;stroke-dasharray:none;stroke-opacity:1" d="M0 0L-30.771 52.362V169.585c0 8.642-4.57 15.648-10.212 15.648h-.85c-1.297 0-6.487 64.554-12.765 81.767-2.91 7.989-32.006 11.342-63.111 11.353-2.565 .001-15.46 0-15.46 0-31.105-.011-60.205-3.364-63.117-11.353-6.276-17.213-11.467-81.767-12.765-81.767h-.85c-5.638 0-10.21-7.006-10.21-15.648V52.362L-250.879 0-267.446-104.718l49.451 4.557c5.205-3.447 12.925-5.634 21.549-5.634 9.892 0 18.584 2.88 23.668 7.238v-29.832h9.469l9.157 20.985V-93.05h57.426v-14.354l9.155-20.985h9.469v29.832c5.084-4.358 13.774-7.238 23.665-7.238 8.624 0 16.345 2.187 21.555 5.634l49.444-4.557z"/>
          </g>
          <g transform="translate(418.7737,636.6916)">
            <path style="fill:#ffffff;fill-opacity:1;fill-rule:nonzero;stroke:#a7a9ac;stroke-width:0.966;stroke-linecap:butt;stroke-linejoin:miter;stroke-miterlimit:4;stroke-dasharray:none;stroke-opacity:1" d="M0 0C21.039 0 39.019-14.871 46.287-35.877 44.54 1.425 24.493 30.849 0 30.849c-24.495 0-44.54-29.425-46.289-66.728C-39.019-14.873-21.043 0 0 0z"/>
          </g>

          <g transform="translate(418.7737,636.6916)">
            <path style="fill:#ffffff;fill-opacity:1;fill-rule:nonzero;stroke:#a7a9ac;stroke-width:0.966;stroke-linecap:butt;stroke-linejoin:miter;stroke-miterlimit:4;stroke-dasharray:none;stroke-opacity:1" d="M0 0L-.002 23.12l-3.232-.001-.157 7.731"/>
          </g>
          <g transform="translate(422.0081,667.5422)">
            <path style="fill:#ffffff;fill-opacity:1;fill-rule:nonzero;stroke:#a7a9ac;stroke-width:0.966;stroke-linecap:butt;stroke-linejoin:miter;stroke-miterlimit:4;stroke-dasharray:none;stroke-opacity:1" d="M0 0L.156-7.73H-3.236"/>
          </g>
          <g transform="translate(439.4643,643.6251)">
            <path style="fill:#a7a9ac;fill-opacity:1;fill-rule:nonzero;stroke:#a7a9ac;stroke-width:0.966;stroke-linecap:butt;stroke-linejoin:miter;stroke-miterlimit:4;stroke-dasharray:none;stroke-opacity:1" d="M0 0C-6.157 2.562-13.236 4.038-20.785 4.038c-7.476 0-14.488-1.447-20.605-3.961l-.835 11.692V-.258-3.692-7.999c5.867 3.524 13.324 5.634 21.44 5.634 8.203 0 15.731-2.154 21.628-5.745v4.418 3.35V11.769z"/>
          </g>

          <path style="fill:#ffffff;fill-opacity:1;fill-rule:nonzero;stroke:none" d="M541.35 328.512H521.472v5.52H541.35z"/>
          <g transform="translate(541.3495,328.5124)">
            <path style="fill:none;stroke:#a7a9ac;stroke-width:0.966;stroke-linecap:butt;stroke-linejoin:miter;stroke-miterlimit:4;stroke-dasharray:none;stroke-opacity:1" d="M0 0H-19.878V5.52H0z"/>
          </g>
          <g transform="translate(373.2184,476.4144)">
            <path style="fill:none;stroke:#000000;stroke-width:1.932;stroke-linecap:round;stroke-linejoin:miter;stroke-miterlimit:4;stroke-dasharray:none;stroke-opacity:1" d="M0 0V-164.281"/>
          </g>
          <g transform="translate(464.942,476.4144)">
            <path style="fill:none;stroke:#000000;stroke-width:1.932;stroke-linecap:round;stroke-linejoin:miter;stroke-miterlimit:4;stroke-dasharray:none;stroke-opacity:1" d="M0 0V-164.281"/>
          </g>
          <g transform="translate(464.942,476.4144)">
            <path style="fill:none;stroke:#000000;stroke-width:1.932;stroke-linecap:round;stroke-linejoin:miter;stroke-miterlimit:4;stroke-dasharray:none;stroke-opacity:1" d="M0 0V-164.281"/>
          </g>
          <g transform="translate(358.7147,536.1809)">
            <path style="fill:none;stroke:#000000;stroke-width:1.932;stroke-linecap:round;stroke-linejoin:miter;stroke-miterlimit:4;stroke-dasharray:none;stroke-opacity:1" d="M0 0L-27.935 48.385"/>
          </g>
          <g transform="translate(477.263,536.1809)">
            <path style="fill:none;stroke:#000000;stroke-width:1.932;stroke-linecap:round;stroke-linejoin:miter;stroke-miterlimit:4;stroke-dasharray:none;stroke-opacity:1" d="M0 0L27.935 48.385"/>
          </g>

          <!-- Location contours follow the drawn silhouette; the structural panel remains in front. -->
          <path class="armor unitLocation" data-loc="NOS" fill="transparent" stroke="none" clip-path="url(#dropship-aerodyne-contour)" d="M0 584.5659H330.7797l27.935-48.385H477.263l27.935 48.385H1000V1000H0z"/>
          <path class="armor unitLocation" data-loc="LS" fill="transparent" stroke="none" clip-path="url(#dropship-aerodyne-contour)" d="M0 0H371.4318V307.5446H373.2184V536.1809H358.7147l-27.935 48.385H0z"/>
          <path class="armor unitLocation" data-loc="RS" fill="transparent" stroke="none" clip-path="url(#dropship-aerodyne-contour)" d="M466.1078 0H1000V584.5659H505.198l-27.935-48.385H464.942V307.5446H466.1078z"/>
          <path class="armor unitLocation" data-loc="AFT" fill="transparent" stroke="none" clip-path="url(#dropship-aerodyne-contour)" d="M371.4318 0H466.1078V307.5446H464.942V536.1809H373.2184V307.5446H371.4318Z"/>
<g transform="translate(475.4887,493)">
            <path class="structure unitLocation" data-loc="SI" style="fill:#ccced0;fill-opacity:1;fill-rule:nonzero;stroke:#000000;stroke-width:1.932;stroke-linecap:butt;stroke-linejoin:miter;stroke-miterlimit:4;stroke-dasharray:none;stroke-opacity:1" d="M0 0C0-6.402-4.284-11.591-9.568-11.591h-95.05c-5.285 0-9.569 5.189-9.569 11.591V34.317c0 6.401 4.284 11.591 9.569 11.591h95.05C-4.284 45.908 0 40.718 0 34.317z"/>
          </g>

          <text style="font-variant:normal;font-weight:bold;font-stretch:normal;font-size:7.7273px;font-family:Eurostile;writing-mode:lr-tb;fill:#000000;fill-opacity:1;fill-rule:nonzero;stroke:none" text-anchor="middle" transform="matrix(1,0,0,-1,411,530)"><tspan x="0" y="0">Structural Integrity:</tspan><tspan x="40" y="0" id="textSI">0</tspan></text>
          <text style="font-style:normal;font-variant:normal;font-weight:bold;font-stretch:normal;font-size:7.7273px;font-family:Eurostile;font-variant-ligatures:normal;font-variant-caps:normal;font-variant-numeric:normal;font-variant-east-asian:normal;writing-mode:lr-tb;fill:#000000;fill-opacity:1;fill-rule:nonzero;stroke:none" transform="matrix(1,0,0,-1,450,721.4)" text-anchor="middle"><tspan x="0" y="0" style="font-style:normal;font-variant:normal;font-weight:bold;font-stretch:normal;font-size:7.7273px;font-family:Eurostile;font-variant-ligatures:normal;font-variant-caps:normal;font-variant-numeric:normal;font-variant-east-asian:normal">Nose</tspan><tspan x="0" y="9.2727604" style="font-style:normal;font-variant:normal;font-weight:bold;font-stretch:normal;font-size:7.7273px;font-family:Eurostile;font-variant-ligatures:normal;font-variant-caps:normal;font-variant-numeric:normal;font-variant-east-asian:normal">Damage Threshold</tspan><tspan x="0" y="18.545521" style="font-style:normal;font-variant:normal;font-weight:bold;font-stretch:normal;font-size:7.7273px;font-family:Eurostile;font-variant-ligatures:normal;font-variant-caps:normal;font-variant-numeric:normal;font-variant-east-asian:normal">(Total Armor)</tspan><tspan x="0" y="27.8183" id="textArmor_NOS" style="font-style:normal;font-variant:normal;font-weight:bold;font-stretch:normal;font-size:7.7273px;font-family:Eurostile;font-variant-ligatures:normal;font-variant-caps:normal;font-variant-numeric:normal;font-variant-east-asian:normal">( )</tspan></text>
          <text style="font-style:normal;font-variant:normal;font-weight:bold;font-stretch:normal;font-size:7.7273px;font-family:Eurostile;font-variant-ligatures:normal;font-variant-caps:normal;font-variant-numeric:normal;font-variant-east-asian:normal;writing-mode:lr-tb;fill:#000000;fill-opacity:1;fill-rule:nonzero;stroke:none" transform="matrix(1,0,0,-1,546.8,488.49)" text-anchor="middle"><tspan x="0" y="0" style="font-style:normal;font-variant:normal;font-weight:bold;font-stretch:normal;font-size:7.7273px;font-family:Eurostile;font-variant-ligatures:normal;font-variant-caps:normal;font-variant-numeric:normal;font-variant-east-asian:normal">Right Wing</tspan><tspan x="0" y="9.2727604" style="font-style:normal;font-variant:normal;font-weight:bold;font-stretch:normal;font-size:7.7273px;font-family:Eurostile;font-variant-ligatures:normal;font-variant-caps:normal;font-variant-numeric:normal;font-variant-east-asian:normal">Damage</tspan><tspan x="0" y="18.545521" style="font-style:normal;font-variant:normal;font-weight:bold;font-stretch:normal;font-size:7.7273px;font-family:Eurostile;font-variant-ligatures:normal;font-variant-caps:normal;font-variant-numeric:normal;font-variant-east-asian:normal">Threshold</tspan><tspan x="0" y="27.8183" style="font-style:normal;font-variant:normal;font-weight:bold;font-stretch:normal;font-size:7.7273px;font-family:Eurostile;font-variant-ligatures:normal;font-variant-caps:normal;font-variant-numeric:normal;font-variant-east-asian:normal">(Total Armor)</tspan><tspan x="0" y="37.091" id="textArmor_RS" style="font-style:normal;font-variant:normal;font-weight:bold;font-stretch:normal;font-size:7.7273px;font-family:Eurostile;font-variant-ligatures:normal;font-variant-caps:normal;font-variant-numeric:normal;font-variant-east-asian:normal">( )</tspan></text>
          <text style="font-style:normal;font-variant:normal;font-weight:bold;font-stretch:normal;font-size:7.7273px;font-family:Eurostile;font-variant-ligatures:normal;font-variant-caps:normal;font-variant-numeric:normal;font-variant-east-asian:normal;writing-mode:lr-tb;fill:#000000;fill-opacity:1;fill-rule:nonzero;stroke:none" transform="matrix(1,0,0,-1,418.42,277.9)" text-anchor="middle"><tspan x="0" y="0" style="font-style:normal;font-variant:normal;font-weight:bold;font-stretch:normal;font-size:7.7273px;font-family:Eurostile;font-variant-ligatures:normal;font-variant-caps:normal;font-variant-numeric:normal;font-variant-east-asian:normal">Aft</tspan><tspan x="0" y="9.2727604" style="font-style:normal;font-variant:normal;font-weight:bold;font-stretch:normal;font-size:7.7273px;font-family:Eurostile;font-variant-ligatures:normal;font-variant-caps:normal;font-variant-numeric:normal;font-variant-east-asian:normal">Damage Threshold</tspan><tspan x="0" y="18.545521" style="font-style:normal;font-variant:normal;font-weight:bold;font-stretch:normal;font-size:7.7273px;font-family:Eurostile;font-variant-ligatures:normal;font-variant-caps:normal;font-variant-numeric:normal;font-variant-east-asian:normal">(Total Armor)</tspan><tspan x="0" y="27.8183" id="textArmor_AFT" style="font-style:normal;font-variant:normal;font-weight:bold;font-stretch:normal;font-size:7.7273px;font-family:Eurostile;font-variant-ligatures:normal;font-variant-caps:normal;font-variant-numeric:normal;font-variant-east-asian:normal">( )</tspan></text>
          <text style="font-style:normal;font-variant:normal;font-weight:bold;font-stretch:normal;font-size:7.7273px;font-family:Eurostile;font-variant-ligatures:normal;font-variant-caps:normal;font-variant-numeric:normal;font-variant-east-asian:normal;fill:#000000;fill-opacity:1;fill-rule:nonzero;stroke:none" transform="matrix(1,0,0,-1,290,488.49)" text-anchor="middle"><tspan x="0" y="0" style="font-style:normal;font-variant:normal;font-weight:bold;font-stretch:normal;font-size:7.7273px;font-family:Eurostile;font-variant-ligatures:normal;font-variant-caps:normal;font-variant-numeric:normal;font-variant-east-asian:normal">Left Wing</tspan><tspan x="0" y="9.2727604" style="font-style:normal;font-variant:normal;font-weight:bold;font-stretch:normal;font-size:7.7273px;font-family:Eurostile;font-variant-ligatures:normal;font-variant-caps:normal;font-variant-numeric:normal;font-variant-east-asian:normal">Damage</tspan><tspan x="0" y="18.545521" style="font-style:normal;font-variant:normal;font-weight:bold;font-stretch:normal;font-size:7.7273px;font-family:Eurostile;font-variant-ligatures:normal;font-variant-caps:normal;font-variant-numeric:normal;font-variant-east-asian:normal">Threshold</tspan><tspan x="0" y="27.8183" style="font-style:normal;font-variant:normal;font-weight:bold;font-stretch:normal;font-size:7.7273px;font-family:Eurostile;font-variant-ligatures:normal;font-variant-caps:normal;font-variant-numeric:normal;font-variant-east-asian:normal">(Total Armor)</tspan><tspan x="0" y="37.091" id="textArmor_LS" style="font-style:normal;font-variant:normal;font-weight:bold;font-stretch:normal;font-size:7.7273px;font-family:Eurostile;font-variant-ligatures:normal;font-variant-caps:normal;font-variant-numeric:normal;font-variant-east-asian:normal">( )</tspan></text>
        </g>
        <g fill="none">
          <g transform="translate(156.7,47.5)" class="paperdoll-pip-profile">
            <rect x="-53.799999" width="107.6" y="0" height="6.8000002" data-fill="armor" data-location="NOS"/>
            <rect x="-69.300003" width="138.60001" y="6.8000002" height="6.8000002" data-fill="armor" data-location="NOS"/>
            <rect x="-71.599998" width="143.2" y="13.6" height="6.8000002" data-fill="armor" data-location="NOS"/>
            <rect x="-73" width="146" y="20.4" height="6.8000002" data-fill="armor" data-location="NOS"/>
            <rect x="-73.5" width="147" y="27.200001" height="6.8000002" data-fill="armor" data-location="NOS"/>
            <rect x="-74.300003" width="148.60001" y="34" height="6.8000002" data-fill="armor" data-location="NOS"/>
            <rect x="-76.199997" width="152.39999" y="40.799999" height="6.8000002" data-fill="armor" data-location="NOS"/>
            <rect x="-77.300003" width="154.60001" y="47.599998" height="6.8000002" data-fill="armor" data-location="NOS"/>
            <rect x="-78.300003" width="156.60001" y="54.400002" height="6.8000002" data-fill="armor" data-location="NOS"/>
            <rect x="-78.900002" width="157.8" y="61.200001" height="6.8000002" data-fill="armor" data-location="NOS"/>
            <rect x="-79.5" width="159" y="68" height="6.8000002" data-fill="armor" data-location="NOS"/>
            <rect x="-80.300003" width="160.60001" y="74.800003" height="6.8000002" data-fill="armor" data-location="NOS"/>
            <rect x="-82.400002" width="164.8" y="81.400002" height="6.8000002" data-fill="armor" data-location="NOS"/>
            <rect x="-82.099998" width="164.2" y="88.199997" height="6.8000002" data-fill="armor" data-location="NOS"/>
            <rect x="-78.800003" width="157.60001" y="95" height="6.8000002" data-fill="armor" data-location="NOS"/>
            <rect x="-75.599998" width="151.2" y="101.8" height="6.8000002" data-fill="armor" data-location="NOS"/>
            <rect x="-72.300003" width="144.60001" y="108.6" height="6.8000002" data-fill="armor" data-location="NOS"/>
            <rect x="-69" width="138" y="115.6" height="6.8000002" data-fill="armor" data-location="NOS"/>
            <rect x="-65.800003" width="131.60001" y="122.4" height="6.8000002" data-fill="armor" data-location="NOS"/>
            <rect x="-62.5" width="125" y="129.2" height="6.8000002" data-fill="armor" data-location="NOS"/>
          </g>
          <g transform="translate(205.42,155)" class="paperdoll-pip-profile">
            <rect x="32.5" width="12" y="0" height="6.8000002" data-fill="armor" data-location="RS"/>
            <rect x="28.5" width="16" y="6.8000002" height="6.8000002" data-fill="armor" data-location="RS"/>
            <rect x="24.5" width="20" y="13.6" height="6.8000002" data-fill="armor" data-location="RS"/>
            <rect x="20.5" width="24" y="20.4" height="6.8000002" data-fill="armor" data-location="RS"/>
            <rect x="16.5" width="28" y="27.200001" height="6.8000002" data-fill="armor" data-location="RS"/>
            <rect x="12.5" width="32" y="34" height="6.8000002" data-fill="armor" data-location="RS"/>
            <rect x="10.4" width="34" y="40.799999" height="6.8000002" data-fill="armor" data-location="RS"/>
            <rect x="10.4" width="34" y="47.599998" height="6.8000002" data-fill="armor" data-location="RS"/>
            <rect x="10.4" width="34" y="54.400002" height="6.8000002" data-fill="armor" data-location="RS"/>
            <rect x="10.4" width="34" y="61.200001" height="6.8000002" data-fill="armor" data-location="RS"/>
            <rect x="10.4" width="34" y="68" height="6.8000002" data-fill="armor" data-location="RS"/>
            <rect x="10.4" width="34" y="74.800003" height="6.8000002" data-fill="armor" data-location="RS"/>
            <rect x="10.4" width="34" y="81.599998" height="6.8000002" data-fill="armor" data-location="RS"/>
            <rect x="5.4000001" width="39" y="88.400002" height="6.8000002" data-fill="armor" data-location="RS"/>
            <rect x="0" width="44.5" y="95.199997" height="6.8000002" data-fill="armor" data-location="RS"/>
            <rect x="0" width="44.5" y="102" height="6.8000002" data-fill="armor" data-location="RS"/>
            <rect x="0" width="44.5" y="108.8" height="6.8000002" data-fill="armor" data-location="RS"/>
            <rect x="0" width="45.299999" y="115.6" height="6.8000002" data-fill="armor" data-location="RS"/>
            <rect x="0" width="49.400002" y="122.4" height="6.8000002" data-fill="armor" data-location="RS"/>
            <rect x="0" width="53.5" y="129.2" height="6.8000002" data-fill="armor" data-location="RS"/>
            <rect x="0" width="57.599998" y="136" height="6.8000002" data-fill="armor" data-location="RS"/>
            <rect x="0" width="61.599998" y="142.8" height="6.8000002" data-fill="armor" data-location="RS"/>
            <rect x="0" width="65.699997" y="149.60001" height="6.8000002" data-fill="armor" data-location="RS"/>
            <rect x="0" width="69.800003" y="156.39999" height="6.8000002" data-fill="armor" data-location="RS"/>
            <rect x="0" width="73.900002" y="163.2" height="6.8000002" data-fill="armor" data-location="RS"/>
            <rect x="0" width="75.699997" y="170" height="6.8000002" data-fill="armor" data-location="RS"/>
            <rect x="0" width="76.800003" y="176.8" height="6.8000002" data-fill="armor" data-location="RS"/>
            <rect x="0" width="77.800003" y="183.60001" height="6.8000002" data-fill="armor" data-location="RS"/>
            <rect x="0" width="78.900002" y="190.39999" height="6.8000002" data-fill="armor" data-location="RS"/>
            <rect x="0" width="79.900002" y="197.2" height="6.8000002" data-fill="armor" data-location="RS"/>
            <rect x="0" width="81" y="204" height="6.8000002" data-fill="armor" data-location="RS"/>
            <rect x="0" width="82.099998" y="210.8" height="6.8000002" data-fill="armor" data-location="RS"/>
            <rect x="0" width="83.099998" y="217.60001" height="6.8000002" data-fill="armor" data-location="RS"/>
            <rect x="0" width="84.199997" y="224.39999" height="6.8000002" data-fill="armor" data-location="RS"/>
            <rect x="0" width="85.199997" y="231.2" height="6.8000002" data-fill="armor" data-location="RS"/>
            <rect x="0" width="86.300003" y="238" height="6.8000002" data-fill="armor" data-location="RS"/>
            <rect x="0" width="88" y="244.8" height="6.8000002" data-fill="armor" data-location="RS"/>
            <rect x="0" width="89" y="251.60001" height="6.8000002" data-fill="armor" data-location="RS"/>
            <rect x="1" width="89.300003" y="258.39999" height="6.8000002" data-fill="armor" data-location="RS"/>
          </g>
          <g transform="matrix(-1,0,0,1,107.98,155)" class="paperdoll-pip-profile">
            <rect x="32.5" width="12" y="0" height="6.8000002" data-fill="armor" data-location="LS"/>
            <rect x="28.5" width="16" y="6.8000002" height="6.8000002" data-fill="armor" data-location="LS"/>
            <rect x="24.5" width="20" y="13.6" height="6.8000002" data-fill="armor" data-location="LS"/>
            <rect x="20.5" width="24" y="20.4" height="6.8000002" data-fill="armor" data-location="LS"/>
            <rect x="16.5" width="28" y="27.200001" height="6.8000002" data-fill="armor" data-location="LS"/>
            <rect x="12.5" width="32" y="34" height="6.8000002" data-fill="armor" data-location="LS"/>
            <rect x="10.4" width="34" y="40.799999" height="6.8000002" data-fill="armor" data-location="LS"/>
            <rect x="10.4" width="34" y="47.599998" height="6.8000002" data-fill="armor" data-location="LS"/>
            <rect x="10.4" width="34" y="54.400002" height="6.8000002" data-fill="armor" data-location="LS"/>
            <rect x="10.4" width="34" y="61.200001" height="6.8000002" data-fill="armor" data-location="LS"/>
            <rect x="10.4" width="34" y="68" height="6.8000002" data-fill="armor" data-location="LS"/>
            <rect x="10.4" width="34" y="74.800003" height="6.8000002" data-fill="armor" data-location="LS"/>
            <rect x="10.4" width="34" y="81.599998" height="6.8000002" data-fill="armor" data-location="LS"/>
            <rect x="5.4000001" width="39" y="88.400002" height="6.8000002" data-fill="armor" data-location="LS"/>
            <rect x="0" width="44.5" y="95.199997" height="6.8000002" data-fill="armor" data-location="LS"/>
            <rect x="0" width="44.5" y="102" height="6.8000002" data-fill="armor" data-location="LS"/>
            <rect x="0" width="44.5" y="108.8" height="6.8000002" data-fill="armor" data-location="LS"/>
            <rect x="0" width="45.299999" y="115.6" height="6.8000002" data-fill="armor" data-location="LS"/>
            <rect x="0" width="49.400002" y="122.4" height="6.8000002" data-fill="armor" data-location="LS"/>
            <rect x="0" width="53.5" y="129.2" height="6.8000002" data-fill="armor" data-location="LS"/>
            <rect x="0" width="57.599998" y="136" height="6.8000002" data-fill="armor" data-location="LS"/>
            <rect x="0" width="61.599998" y="142.8" height="6.8000002" data-fill="armor" data-location="LS"/>
            <rect x="0" width="65.699997" y="149.60001" height="6.8000002" data-fill="armor" data-location="LS"/>
            <rect x="0" width="69.800003" y="156.39999" height="6.8000002" data-fill="armor" data-location="LS"/>
            <rect x="0" width="73.900002" y="163.2" height="6.8000002" data-fill="armor" data-location="LS"/>
            <rect x="0" width="75.699997" y="170" height="6.8000002" data-fill="armor" data-location="LS"/>
            <rect x="0" width="76.800003" y="176.8" height="6.8000002" data-fill="armor" data-location="LS"/>
            <rect x="0" width="77.800003" y="183.60001" height="6.8000002" data-fill="armor" data-location="LS"/>
            <rect x="0" width="78.900002" y="190.39999" height="6.8000002" data-fill="armor" data-location="LS"/>
            <rect x="0" width="79.900002" y="197.2" height="6.8000002" data-fill="armor" data-location="LS"/>
            <rect x="0" width="81" y="204" height="6.8000002" data-fill="armor" data-location="LS"/>
            <rect x="0" width="82.099998" y="210.8" height="6.8000002" data-fill="armor" data-location="LS"/>
            <rect x="0" width="83.099998" y="217.60001" height="6.8000002" data-fill="armor" data-location="LS"/>
            <rect x="0" width="84.199997" y="224.39999" height="6.8000002" data-fill="armor" data-location="LS"/>
            <rect x="0" width="85.199997" y="231.2" height="6.8000002" data-fill="armor" data-location="LS"/>
            <rect x="0" width="86.300003" y="238" height="6.8000002" data-fill="armor" data-location="LS"/>
            <rect x="0" width="88" y="244.8" height="6.8000002" data-fill="armor" data-location="LS"/>
            <rect x="0" width="89" y="251.60001" height="6.8000002" data-fill="armor" data-location="LS"/>
            <rect x="1" width="89.300003" y="258.39999" height="6.8000002" data-fill="armor" data-location="LS"/>
          </g>
          <g transform="translate(156.7,248)" class="paperdoll-pip-profile">
            <rect x="-42" width="84" y="0" height="6.8000002" data-fill="armor" data-location="AFT"/>
            <rect x="-42" width="84" y="6.8000002" height="6.8000002" data-fill="armor" data-location="AFT"/>
            <rect x="-42" width="84" y="13.6" height="6.8000002" data-fill="armor" data-location="AFT"/>
            <rect x="-42" width="84" y="20.4" height="6.8000002" data-fill="armor" data-location="AFT"/>
            <rect x="-42" width="84" y="27.200001" height="6.8000002" data-fill="armor" data-location="AFT"/>
            <rect x="-42" width="84" y="34" height="6.8000002" data-fill="armor" data-location="AFT"/>
            <rect x="-42" width="84" y="40.799999" height="6.8000002" data-fill="armor" data-location="AFT"/>
            <rect x="-42" width="84" y="47.599998" height="6.8000002" data-fill="armor" data-location="AFT"/>
            <rect x="-42" width="84" y="54.400002" height="6.8000002" data-fill="armor" data-location="AFT"/>
            <rect x="-42" width="84" y="61.200001" height="6.8000002" data-fill="armor" data-location="AFT"/>
            <rect x="-42" width="84" y="68" height="6.8000002" data-fill="armor" data-location="AFT"/>
            <rect x="-42" width="84" y="74.800003" height="6.8000002" data-fill="armor" data-location="AFT"/>
            <rect x="-42" width="84" y="81.599998" height="6.8000002" data-fill="armor" data-location="AFT"/>
            <rect x="-42" width="84" y="88.400002" height="6.8000002" data-fill="armor" data-location="AFT"/>
            <rect x="-42" width="84" y="95.199997" height="6.8000002" data-fill="armor" data-location="AFT"/>
            <rect x="-42" width="84" y="102" height="6.8000002" data-fill="armor" data-location="AFT"/>
            <rect x="-42" width="84" y="108.8" height="6.8000002" data-fill="armor" data-location="AFT"/>
            <rect x="-42" width="84" y="115.6" height="6.8000002" data-fill="armor" data-location="AFT"/>
            <rect x="-42" width="84" y="122.4" height="6.8000002" data-fill="armor" data-location="AFT"/>
            <rect x="-42" width="84" y="129.2" height="6.8000002" data-fill="armor" data-location="AFT"/>
            <rect x="-42" width="84" y="136" height="6.8000002" data-fill="armor" data-location="AFT"/>
            <rect x="-42" width="84" y="142.8" height="6.8000002" data-fill="armor" data-location="AFT"/>
            <rect x="-42" width="84" y="149.60001" height="6.8000002" data-fill="armor" data-location="AFT"/>
            <rect x="-42" width="84" y="156.39999" height="6.8000002" data-fill="armor" data-location="AFT"/>
          </g>
        </g>
        <g fill="none">
          <g transform="translate(156.7,200)" class="paperdoll-pip-profile">
            <rect x="-54" width="108" y="0" height="5.5999999" data-fill="structure" data-location="SI"/>
            <rect x="-54" width="108" y="5.5999999" height="5.5999999" data-fill="structure" data-location="SI"/>
            <rect x="-54" width="108" y="11.2" height="5.5999999" data-fill="structure" data-location="SI"/>
            <rect x="-54" width="108" y="16.799999" height="5.5999999" data-fill="structure" data-location="SI"/>
            <rect x="-54" width="108" y="22.4" height="5.5999999" data-fill="structure" data-location="SI"/>
            <rect x="-54" width="108" y="28" height="5.5999999" data-fill="structure" data-location="SI"/>
            <rect x="-54" width="108" y="33.599998" height="5.5999999" data-fill="structure" data-location="SI"/>
          </g>
        </g>
      </g>
      </svg>
