<svg xmlns="http://www.w3.org/2000/svg" viewBox="0.625 69 187.125 605.625">
  <defs><clipPath id="pd-ex1"><path clip-rule="evenodd" d="M397 56H584V651H397zm92.014 458.992V175.821H446.152V525.2749875L453.8427489 514.992zzm78.0110591-373.574H412.0749557l32.4568933 33.803h90.0372994zz"/></clipPath><clipPath id="pd-ex2"><path clip-rule="evenodd" d="M397 56H584V651H397zm31.8649817 493.392H549.4499764l-25.2812209-33.8H454.143255zz"/></clipPath><clipPath id="pd-ex3"><path clip-rule="evenodd" d="M397 56H584V651H397zm92.652 230.438V514.993h34.8172248L532.514 525.7461986V175.821H489.652zzm77.3730591-145.02H412.0749557l32.4568933 33.803h90.0372994zz"/></clipPath></defs>
  <g class="naval-paperdoll-root" transform="matrix(1.027 0 0 1.027 0.000 50.464)" id="g278" xmlns="http://www.w3.org/2000/svg">
    <g id="armor_diagram_naval_noturret" transform="translate(-399.18801,-40.430276)">
      <path fill="#CCCECF" d="M471.111 647.098s-7.461 .54-6.394-8.374h-56.63v-3.806l27.401-44.909h9.136l-5.481-14.462H404.432v-9.136l27.404-13.701s-18.271-47.442-21.009-87.022V190.582s-1.827-32.731 4.566-51c0 0 22.379-70.789 75.814-76.12h3.02c53.436 5.331 75.815 76.12 75.815 76.12 6.392 18.269 4.565 51 4.565 51V465.688c-2.74 39.58-21.01 87.022-21.01 87.022l27.404 13.701v9.136H546.292l-5.482 14.462h9.135l27.401 44.909v3.806H520.714c1.069 8.914-6.392 8.374-6.392 8.374" />
      <defs><clipPath id="naval-noturret-armor-outline-1" clipPathUnits="userSpaceOnUse"><path d="M468.277,643.965c0,0-7.463,0.541-6.394-8.374h-56.631v-3.807l27.401-44.908h9.136l-5.482-14.463h-34.711  v-9.136l27.405-13.7c0,0-18.27-47.443-21.009-87.022V187.448c0,0-1.827-32.731,4.565-51c0,0,22.379-70.789,75.815-76.118h3.019  c53.438,5.329,75.816,76.118,75.816,76.118c6.393,18.269,4.564,51,4.564,51v275.106c-2.738,39.579-21.008,87.022-21.008,87.022  l27.402,13.7v9.136H543.46l-5.483,14.463h9.136l27.402,44.908v3.807h-56.633c1.07,8.915-6.392,8.374-6.392,8.374" /></clipPath></defs>
      <g clip-path="url(#naval-noturret-armor-outline-1)">
        <path class="armor unitLocation" data-loc="FR" fill="#FFFFFF" stroke="none" d="M300 0H650V141.118H300z" />
        <path class="armor unitLocation" data-loc="RR" fill="#FFFFFF" stroke="none" d="M300 549.692H650V700H300z" />
        <g clip-path="url(#pd-ex1)"><path class="armor unitLocation" data-loc="LS" fill="#FFFFFF" stroke="none" d="M300 141.118H489.333V549.692H300z"  clip-path="url(#pd-ex2)"/></g>
        <g clip-path="url(#pd-ex3)"><path class="armor unitLocation" data-loc="RS" fill="#FFFFFF" stroke="none" d="M489.333 141.118H650V549.692H489.333z"  clip-path="url(#pd-ex2)"/></g>
      </g>
      <path fill="none" stroke-width="1.522" d="M468.276 643.965s-7.461 .54-6.394-8.374h-56.63v-3.807l27.401-44.908h9.136l-5.482-14.463H401.596v-9.136l27.405-13.7s-18.27-47.443-21.009-87.022V187.448s-1.828-32.731 4.565-50.999c0 0 22.379-70.791 75.815-76.12h3.019c53.438 5.329 75.816 76.12 75.816 76.12 6.393 18.268 4.564 50.999 4.564 50.999V462.554c-2.738 39.579-21.008 87.022-21.008 87.022l27.402 13.7v9.136H543.46l-5.483 14.463h9.136l27.4 44.908v3.807H517.882c1.07 8.914-6.393 8.374-6.393 8.374H468.276z" stroke="#434344" />
      <path fill="#CCCECF" d="M489.352,286.438v228.855h34.967l8.495,11.355V175.521h-43.462v110.917" class="structure unitLocation" data-loc="RS" />
      <path fill="#CCCECF" d="M489.314,515.292V175.521h-43.462v350.656l8.141-10.885" class="structure unitLocation" data-loc="LS" />
      <path fill="none" stroke-width="0.761" d="M460.029 632.165H404.768m56.632 3.426l-24.207-66.604H401.114m117.655 63.178h55.263m-56.633 3.426l24.205-66.604h36.08" stroke="#434344" />
      <polyline fill="#CCCECF" points="567.729,141.118 411.371,141.118 444.404,175.521 534.697,175.521 " id="polyline186" class="structure unitLocation" data-loc="FR" />
      <path fill="none" stroke-width="1" d="M489.352 286.438V515.32h34.967l8.533 11.408V175.548h-43.5V286.465zm.001 228.854V175.521h-43.5V526.177l8.141-10.885h35.359zm78.376-374.174H411.371l33.032 34.403h90.293l33.033-34.403z" stroke="#434344" />
      <path fill="#CCCECF" id="polyline190" class="structure unitLocation" data-loc="RR"  d="M428.266 549.692H550.049l-25.73-34.4H453.993z" style=";stroke:#434344;stroke-width:1"/>

      <g fill="none" id="armorPips">
        <g transform="translate(489.63,66.58)" class="paperdoll-pip-profile">
          <rect x="-20.23" width="40.46" y="0" height="10" data-fill="armor" data-location="FR" />
          <rect x="-36.89" width="73.78" y="10" height="10" data-fill="armor" data-location="FR" />
          <rect x="-44.19" width="88.38" y="20" height="10" data-fill="armor" data-location="FR" />
          <rect x="-54.87" width="109.74" y="30" height="10" data-fill="armor" data-location="FR" />
          <rect x="-60.87" width="121.74" y="40" height="10" data-fill="armor" data-location="FR" />
          <rect x="-67.22" width="134.44" y="50" height="10" data-fill="armor" data-location="FR" />
          <rect x="-71.82" width="143.64" y="60" height="10" data-fill="armor" data-location="FR" />
        </g>
        <g transform="translate(533.9,149)" class="paperdoll-pip-profile">
          <rect x="24.92" width="10" y="0" height="10" data-fill="armor" data-location="RS" />
          <rect x="17.93" width="16.64" y="10" height="10" data-fill="armor" data-location="RS" />
          <rect x="8.2" width="27.65" y="20" height="10" data-fill="armor" data-location="RS" />
          <rect x="0" width="36" y="30" height="10" data-fill="armor" data-location="RS" />
          <rect x="0" width="36" y="40" height="10" data-fill="armor" data-location="RS" />
          <rect x="0" width="36" y="50" height="10" data-fill="armor" data-location="RS" />
          <rect x="0" width="36" y="60" height="10" data-fill="armor" data-location="RS" />
          <rect x="0" width="36" y="70" height="10" data-fill="armor" data-location="RS" />
          <rect x="0" width="36" y="80" height="10" data-fill="armor" data-location="RS" />
          <rect x="0" width="36" y="90" height="10" data-fill="armor" data-location="RS" />
          <rect x="0" width="36" y="100" height="10" data-fill="armor" data-location="RS" />
          <rect x="0" width="36" y="110" height="10" data-fill="armor" data-location="RS" />
          <rect x="0" width="36" y="120" height="10" data-fill="armor" data-location="RS" />
          <rect x="0" width="36" y="130" height="10" data-fill="armor" data-location="RS" />
          <rect x="0" width="36" y="140" height="10" data-fill="armor" data-location="RS" />
          <rect x="0" width="36" y="150" height="10" data-fill="armor" data-location="RS" />
          <rect x="0" width="36" y="160" height="10" data-fill="armor" data-location="RS" />
          <rect x="0" width="36" y="170" height="10" data-fill="armor" data-location="RS" />
          <rect x="0" width="36" y="180" height="10" data-fill="armor" data-location="RS" />
          <rect x="0" width="36" y="190" height="10" data-fill="armor" data-location="RS" />
          <rect x="0" width="36" y="200" height="10" data-fill="armor" data-location="RS" />
          <rect x="0" width="36" y="210" height="10" data-fill="armor" data-location="RS" />
          <rect x="0" width="36" y="220" height="10" data-fill="armor" data-location="RS" />
          <rect x="0" width="36" y="230" height="10" data-fill="armor" data-location="RS" />
          <rect x="0" width="36" y="240" height="10" data-fill="armor" data-location="RS" />
          <rect x="0" width="36" y="250" height="10" data-fill="armor" data-location="RS" />
          <rect x="0" width="36" y="260" height="10" data-fill="armor" data-location="RS" />
          <rect x="0" width="36" y="270" height="10" data-fill="armor" data-location="RS" />
          <rect x="0" width="36" y="280" height="10" data-fill="armor" data-location="RS" />
          <rect x="0" width="36" y="290" height="10" data-fill="armor" data-location="RS" />
          <rect x="0" width="36" y="300" height="10" data-fill="armor" data-location="RS" />
          <rect x="0" width="36" y="310" height="10" data-fill="armor" data-location="RS" />
          <rect x="0" width="34" y="320" height="10" data-fill="armor" data-location="RS" />
          <rect x="0" width="32.4" y="330" height="10" data-fill="armor" data-location="RS" />
          <rect x="0" width="30.7" y="340" height="10" data-fill="armor" data-location="RS" />
          <rect x="0" width="28.1" y="350" height="10" data-fill="armor" data-location="RS" />
          <rect x="0" width="25.4" y="360" height="10" data-fill="armor" data-location="RS" />
          <rect x="0" width="22.4" y="370" height="10" data-fill="armor" data-location="RS" />
        </g>
        <g transform="matrix(-1,0,0,1,444.36,149)" class="paperdoll-pip-profile">
          <rect x="24.92" width="10" y="0" height="10" data-fill="armor" data-location="LS" />
          <rect x="17.93" width="16.64" y="10" height="10" data-fill="armor" data-location="LS" />
          <rect x="8.2" width="27.65" y="20" height="10" data-fill="armor" data-location="LS" />
          <rect x="0" width="36" y="30" height="10" data-fill="armor" data-location="LS" />
          <rect x="0" width="36" y="40" height="10" data-fill="armor" data-location="LS" />
          <rect x="0" width="36" y="50" height="10" data-fill="armor" data-location="LS" />
          <rect x="0" width="36" y="60" height="10" data-fill="armor" data-location="LS" />
          <rect x="0" width="36" y="70" height="10" data-fill="armor" data-location="LS" />
          <rect x="0" width="36" y="80" height="10" data-fill="armor" data-location="LS" />
          <rect x="0" width="36" y="90" height="10" data-fill="armor" data-location="LS" />
          <rect x="0" width="36" y="100" height="10" data-fill="armor" data-location="LS" />
          <rect x="0" width="36" y="110" height="10" data-fill="armor" data-location="LS" />
          <rect x="0" width="36" y="120" height="10" data-fill="armor" data-location="LS" />
          <rect x="0" width="36" y="130" height="10" data-fill="armor" data-location="LS" />
          <rect x="0" width="36" y="140" height="10" data-fill="armor" data-location="LS" />
          <rect x="0" width="36" y="150" height="10" data-fill="armor" data-location="LS" />
          <rect x="0" width="36" y="160" height="10" data-fill="armor" data-location="LS" />
          <rect x="0" width="36" y="170" height="10" data-fill="armor" data-location="LS" />
          <rect x="0" width="36" y="180" height="10" data-fill="armor" data-location="LS" />
          <rect x="0" width="36" y="190" height="10" data-fill="armor" data-location="LS" />
          <rect x="0" width="36" y="200" height="10" data-fill="armor" data-location="LS" />
          <rect x="0" width="36" y="210" height="10" data-fill="armor" data-location="LS" />
          <rect x="0" width="36" y="220" height="10" data-fill="armor" data-location="LS" />
          <rect x="0" width="36" y="230" height="10" data-fill="armor" data-location="LS" />
          <rect x="0" width="36" y="240" height="10" data-fill="armor" data-location="LS" />
          <rect x="0" width="36" y="250" height="10" data-fill="armor" data-location="LS" />
          <rect x="0" width="36" y="260" height="10" data-fill="armor" data-location="LS" />
          <rect x="0" width="36" y="270" height="10" data-fill="armor" data-location="LS" />
          <rect x="0" width="36" y="280" height="10" data-fill="armor" data-location="LS" />
          <rect x="0" width="36" y="290" height="10" data-fill="armor" data-location="LS" />
          <rect x="0" width="36" y="300" height="10" data-fill="armor" data-location="LS" />
          <rect x="0" width="36" y="310" height="10" data-fill="armor" data-location="LS" />
          <rect x="0" width="34" y="320" height="10" data-fill="armor" data-location="LS" />
          <rect x="0" width="32.4" y="330" height="10" data-fill="armor" data-location="LS" />
          <rect x="0" width="30.7" y="340" height="10" data-fill="armor" data-location="LS" />
          <rect x="0" width="28.1" y="350" height="10" data-fill="armor" data-location="LS" />
          <rect x="0" width="25.4" y="360" height="10" data-fill="armor" data-location="LS" />
          <rect x="0" width="22.4" y="370" height="10" data-fill="armor" data-location="LS" />
        </g>
        <g transform="translate(489.63,556.78)" class="paperdoll-pip-profile">
          <rect x="-72" width="144" y="0" height="10" data-fill="armor" data-location="RR" />
          <rect x="-47" width="94" y="10" height="10" data-fill="armor" data-location="RR" />
          <rect x="-44" width="88" y="20" height="10" data-fill="armor" data-location="RR" />
          <rect x="-40" width="80" y="30" height="10" data-fill="armor" data-location="RR" />
          <rect x="-37" width="74" y="40" height="10" data-fill="armor" data-location="RR" />
          <rect x="-33" width="66" y="50" height="10" data-fill="armor" data-location="RR" />
          <rect x="-29" width="58" y="60" height="10" data-fill="armor" data-location="RR" />
          <rect x="-26" width="52" y="70" height="10" data-fill="armor" data-location="RR" />
        </g>
      </g>
      <g fill="none" id="structurePips">
        <g transform="translate(489.6,144.06)" class="paperdoll-pip-profile">
          <rect x="-68.3" width="136.6" y="0" height="6.8" data-fill="structure" data-location="FR" />
          <rect x="-62.7" width="125.4" y="6.8" height="6.8" data-fill="structure" data-location="FR" />
          <rect x="-53.28" width="106.56" y="13.6" height="6.8" data-fill="structure" data-location="FR" />
          <rect x="-49" width="98" y="20.4" height="6.8" data-fill="structure" data-location="FR" />
        </g>
        <g transform="translate(504.63,177.88)" class="paperdoll-pip-profile">
          <rect x="0" width="12" y="0" height="6.8" data-fill="structure" data-location="RS" />
          <rect x="0" width="12" y="6.8" height="6.8" data-fill="structure" data-location="RS" />
          <rect x="0" width="12" y="13.6" height="6.8" data-fill="structure" data-location="RS" />
          <rect x="0" width="12" y="20.4" height="6.8" data-fill="structure" data-location="RS" />
          <rect x="0" width="12" y="27.2" height="6.8" data-fill="structure" data-location="RS" />
          <rect x="0" width="12" y="34.0" height="6.8" data-fill="structure" data-location="RS" />
          <rect x="0" width="12" y="40.8" height="6.8" data-fill="structure" data-location="RS" />
          <rect x="0" width="12" y="47.6" height="6.8" data-fill="structure" data-location="RS" />
          <rect x="0" width="12" y="54.4" height="6.8" data-fill="structure" data-location="RS" />
          <rect x="0" width="12" y="61.2" height="6.8" data-fill="structure" data-location="RS" />
          <rect x="0" width="12" y="68" height="6.8" data-fill="structure" data-location="RS" />
          <rect x="0" width="12" y="74.8" height="6.8" data-fill="structure" data-location="RS" />
          <rect x="0" width="12" y="81.6" height="6.8" data-fill="structure" data-location="RS" />
          <rect x="0" width="12" y="88.4" height="6.8" data-fill="structure" data-location="RS" />
          <rect x="0" width="12" y="95.2" height="6.8" data-fill="structure" data-location="RS" />
          <rect x="0" width="12" y="102" height="6.8" data-fill="structure" data-location="RS" />
          <rect x="0" width="12" y="108.8" height="6.8" data-fill="structure" data-location="RS" />
          <rect x="0" width="12" y="115.6" height="6.8" data-fill="structure" data-location="RS" />
          <rect x="0" width="12" y="122.4" height="6.8" data-fill="structure" data-location="RS" />
          <rect x="0" width="12" y="129.2" height="6.8" data-fill="structure" data-location="RS" />
          <rect x="0" width="12" y="136" height="6.8" data-fill="structure" data-location="RS" />
          <rect x="0" width="12" y="142.8" height="6.8" data-fill="structure" data-location="RS" />
          <rect x="0" width="12" y="149.6" height="6.8" data-fill="structure" data-location="RS" />
          <rect x="0" width="12" y="156.4" height="6.8" data-fill="structure" data-location="RS" />
          <rect x="0" width="12" y="163.2" height="6.8" data-fill="structure" data-location="RS" />
          <rect x="0" width="12" y="170" height="6.8" data-fill="structure" data-location="RS" />
          <rect x="0" width="12" y="176.8" height="6.8" data-fill="structure" data-location="RS" />
          <rect x="0" width="12" y="183.6" height="6.8" data-fill="structure" data-location="RS" />
          <rect x="0" width="12" y="190.4" height="6.8" data-fill="structure" data-location="RS" />
          <rect x="0" width="12" y="197.2" height="6.8" data-fill="structure" data-location="RS" />
          <rect x="0" width="12" y="204" height="6.8" data-fill="structure" data-location="RS" />
          <rect x="0" width="12" y="210.8" height="6.8" data-fill="structure" data-location="RS" />
          <rect x="0" width="12" y="217.6" height="6.8" data-fill="structure" data-location="RS" />
          <rect x="0" width="12" y="224.4" height="6.8" data-fill="structure" data-location="RS" />
          <rect x="0" width="12" y="231.2" height="6.8" data-fill="structure" data-location="RS" />
          <rect x="0" width="12" y="238" height="6.8" data-fill="structure" data-location="RS" />
          <rect x="0" width="12" y="244.8" height="6.8" data-fill="structure" data-location="RS" />
          <rect x="0" width="12" y="251.6" height="6.8" data-fill="structure" data-location="RS" />
          <rect x="0" width="12" y="258.4" height="6.8" data-fill="structure" data-location="RS" />
          <rect x="0" width="12" y="265.2" height="6.8" data-fill="structure" data-location="RS" />
          <rect x="0" width="12" y="272" height="6.8" data-fill="structure" data-location="RS" />
          <rect x="0" width="12" y="278.8" height="6.8" data-fill="structure" data-location="RS" />
          <rect x="0" width="12" y="285.6" height="6.8" data-fill="structure" data-location="RS" />
          <rect x="0" width="12" y="292.4" height="6.8" data-fill="structure" data-location="RS" />
          <rect x="0" width="12" y="299.2" height="6.8" data-fill="structure" data-location="RS" />
          <rect x="0" width="12" y="306" height="6.8" data-fill="structure" data-location="RS" />
          <rect x="0" width="12" y="312.8" height="6.8" data-fill="structure" data-location="RS" />
          <rect x="0" width="12" y="319.6" height="6.8" data-fill="structure" data-location="RS" />
          <rect x="0" width="12" y="326.4" height="6.8" data-fill="structure" data-location="RS" />
        </g>
        <g transform="matrix(-1,0,0,1,473.1,177.88)" class="paperdoll-pip-profile">
          <rect x="0" width="12" y="0" height="6.8" data-fill="structure" data-location="LS" />
          <rect x="0" width="12" y="6.8" height="6.8" data-fill="structure" data-location="LS" />
          <rect x="0" width="12" y="13.6" height="6.8" data-fill="structure" data-location="LS" />
          <rect x="0" width="12" y="20.4" height="6.8" data-fill="structure" data-location="LS" />
          <rect x="0" width="12" y="27.2" height="6.8" data-fill="structure" data-location="LS" />
          <rect x="0" width="12" y="34.0" height="6.8" data-fill="structure" data-location="LS" />
          <rect x="0" width="12" y="40.8" height="6.8" data-fill="structure" data-location="LS" />
          <rect x="0" width="12" y="47.6" height="6.8" data-fill="structure" data-location="LS" />
          <rect x="0" width="12" y="54.4" height="6.8" data-fill="structure" data-location="LS" />
          <rect x="0" width="12" y="61.2" height="6.8" data-fill="structure" data-location="LS" />
          <rect x="0" width="12" y="68" height="6.8" data-fill="structure" data-location="LS" />
          <rect x="0" width="12" y="74.8" height="6.8" data-fill="structure" data-location="LS" />
          <rect x="0" width="12" y="81.6" height="6.8" data-fill="structure" data-location="LS" />
          <rect x="0" width="12" y="88.4" height="6.8" data-fill="structure" data-location="LS" />
          <rect x="0" width="12" y="95.2" height="6.8" data-fill="structure" data-location="LS" />
          <rect x="0" width="12" y="102" height="6.8" data-fill="structure" data-location="LS" />
          <rect x="0" width="12" y="108.8" height="6.8" data-fill="structure" data-location="LS" />
          <rect x="0" width="12" y="115.6" height="6.8" data-fill="structure" data-location="LS" />
          <rect x="0" width="12" y="122.4" height="6.8" data-fill="structure" data-location="LS" />
          <rect x="0" width="12" y="129.2" height="6.8" data-fill="structure" data-location="LS" />
          <rect x="0" width="12" y="136" height="6.8" data-fill="structure" data-location="LS" />
          <rect x="0" width="12" y="142.8" height="6.8" data-fill="structure" data-location="LS" />
          <rect x="0" width="12" y="149.6" height="6.8" data-fill="structure" data-location="LS" />
          <rect x="0" width="12" y="156.4" height="6.8" data-fill="structure" data-location="LS" />
          <rect x="0" width="12" y="163.2" height="6.8" data-fill="structure" data-location="LS" />
          <rect x="0" width="12" y="170" height="6.8" data-fill="structure" data-location="LS" />
          <rect x="0" width="12" y="176.8" height="6.8" data-fill="structure" data-location="LS" />
          <rect x="0" width="12" y="183.6" height="6.8" data-fill="structure" data-location="LS" />
          <rect x="0" width="12" y="190.4" height="6.8" data-fill="structure" data-location="LS" />
          <rect x="0" width="12" y="197.2" height="6.8" data-fill="structure" data-location="LS" />
          <rect x="0" width="12" y="204" height="6.8" data-fill="structure" data-location="LS" />
          <rect x="0" width="12" y="210.8" height="6.8" data-fill="structure" data-location="LS" />
          <rect x="0" width="12" y="217.6" height="6.8" data-fill="structure" data-location="LS" />
          <rect x="0" width="12" y="224.4" height="6.8" data-fill="structure" data-location="LS" />
          <rect x="0" width="12" y="231.2" height="6.8" data-fill="structure" data-location="LS" />
          <rect x="0" width="12" y="238" height="6.8" data-fill="structure" data-location="LS" />
          <rect x="0" width="12" y="244.8" height="6.8" data-fill="structure" data-location="LS" />
          <rect x="0" width="12" y="251.6" height="6.8" data-fill="structure" data-location="LS" />
          <rect x="0" width="12" y="258.4" height="6.8" data-fill="structure" data-location="LS" />
          <rect x="0" width="12" y="265.2" height="6.8" data-fill="structure" data-location="LS" />
          <rect x="0" width="12" y="272" height="6.8" data-fill="structure" data-location="LS" />
          <rect x="0" width="12" y="278.8" height="6.8" data-fill="structure" data-location="LS" />
          <rect x="0" width="12" y="285.6" height="6.8" data-fill="structure" data-location="LS" />
          <rect x="0" width="12" y="292.4" height="6.8" data-fill="structure" data-location="LS" />
          <rect x="0" width="12" y="299.2" height="6.8" data-fill="structure" data-location="LS" />
          <rect x="0" width="12" y="306" height="6.8" data-fill="structure" data-location="LS" />
          <rect x="0" width="12" y="312.8" height="6.8" data-fill="structure" data-location="LS" />
          <rect x="0" width="12" y="319.6" height="6.8" data-fill="structure" data-location="LS" />
          <rect x="0" width="12" y="326.4" height="6.8" data-fill="structure" data-location="LS" />
        </g>
        <g transform="translate(489.6,517.88)" class="paperdoll-pip-profile">
          <rect x="-36" width="72" y="0" height="6.8" data-fill="structure" data-location="RR" />
          <rect x="-41.3" width="82.6" y="6.8" height="6.8" data-fill="structure" data-location="RR" />
          <rect x="-46.7" width="93.4" y="13.6" height="6.8" data-fill="structure" data-location="RR" />
          <rect x="-51.6" width="103.2" y="20.4" height="6.8" data-fill="structure" data-location="RR" />
        </g>
      </g>
    </g>
  </g>
</svg>
